<mxfile host="app.diagrams.net" modified="2020-11-08T12:23:09.048Z" agent="5.0 (Macintosh; Intel Mac OS X 10_15_4) AppleWebKit/537.36 (KHTML, like Gecko) Chrome/86.0.4240.183 Safari/537.36" etag="R4Je2muce4ZwGXeqeQXQ" version="13.9.1" type="github">
  <diagram id="Pxaiw7e1bs1Vgac5WNgr" name="Page-1">
    <mxGraphModel dx="1426" dy="737" grid="1" gridSize="10" guides="1" tooltips="1" connect="1" arrows="1" fold="1" page="1" pageScale="1" pageWidth="827" pageHeight="1169" math="0" shadow="0">
      <root>
        <mxCell id="0" />
        <mxCell id="1" parent="0" />
        <mxCell id="jRU4DG-PdXcAIgFG9BmV-4" value="APP" style="shape=umlLifeline;perimeter=lifelinePerimeter;whiteSpace=wrap;html=1;container=1;collapsible=0;recursiveResize=0;outlineConnect=0;" vertex="1" parent="1">
          <mxGeometry x="150" y="80" width="110" height="640" as="geometry" />
        </mxCell>
        <mxCell id="jRU4DG-PdXcAIgFG9BmV-23" value="" style="html=1;points=[];perimeter=orthogonalPerimeter;" vertex="1" parent="jRU4DG-PdXcAIgFG9BmV-4">
          <mxGeometry x="55" y="572" width="10" height="40" as="geometry" />
        </mxCell>
        <mxCell id="jRU4DG-PdXcAIgFG9BmV-27" value="正常事件处理" style="text;html=1;strokeColor=none;fillColor=none;align=center;verticalAlign=middle;whiteSpace=wrap;rounded=0;" vertex="1" parent="jRU4DG-PdXcAIgFG9BmV-4">
          <mxGeometry x="60" y="592" width="90" height="20" as="geometry" />
        </mxCell>
        <mxCell id="jRU4DG-PdXcAIgFG9BmV-5" value="埋点SDK" style="shape=umlLifeline;perimeter=lifelinePerimeter;whiteSpace=wrap;html=1;container=1;collapsible=0;recursiveResize=0;outlineConnect=0;" vertex="1" parent="1">
          <mxGeometry x="290" y="80" width="100" height="640" as="geometry" />
        </mxCell>
        <mxCell id="jRU4DG-PdXcAIgFG9BmV-14" value="" style="html=1;points=[];perimeter=orthogonalPerimeter;" vertex="1" parent="jRU4DG-PdXcAIgFG9BmV-5">
          <mxGeometry x="45" y="150" width="10" height="40" as="geometry" />
        </mxCell>
        <mxCell id="jRU4DG-PdXcAIgFG9BmV-15" value="HOOK操作&lt;br&gt;1.APP生命周期函数&lt;br&gt;2.页面生命周期函数&lt;br&gt;3.用户点击事件" style="edgeStyle=orthogonalEdgeStyle;html=1;align=left;spacingLeft=2;endArrow=block;rounded=0;entryX=1;entryY=0;" edge="1" target="jRU4DG-PdXcAIgFG9BmV-14" parent="jRU4DG-PdXcAIgFG9BmV-5">
          <mxGeometry relative="1" as="geometry">
            <mxPoint x="50" y="130" as="sourcePoint" />
            <Array as="points">
              <mxPoint x="75" y="130" />
            </Array>
          </mxGeometry>
        </mxCell>
        <mxCell id="jRU4DG-PdXcAIgFG9BmV-19" value="" style="html=1;points=[];perimeter=orthogonalPerimeter;" vertex="1" parent="jRU4DG-PdXcAIgFG9BmV-5">
          <mxGeometry x="46" y="240" width="10" height="350" as="geometry" />
        </mxCell>
        <mxCell id="jRU4DG-PdXcAIgFG9BmV-35" value="" style="html=1;points=[];perimeter=orthogonalPerimeter;" vertex="1" parent="jRU4DG-PdXcAIgFG9BmV-5">
          <mxGeometry x="55" y="268" width="10" height="40" as="geometry" />
        </mxCell>
        <mxCell id="jRU4DG-PdXcAIgFG9BmV-36" value="事件发生视图路径&lt;br&gt;事件容器名称&lt;br&gt;埋点参数生成" style="edgeStyle=orthogonalEdgeStyle;html=1;align=left;spacingLeft=2;endArrow=block;rounded=0;entryX=1;entryY=0;" edge="1" parent="jRU4DG-PdXcAIgFG9BmV-5">
          <mxGeometry relative="1" as="geometry">
            <mxPoint x="50" y="249" as="sourcePoint" />
            <Array as="points">
              <mxPoint x="85" y="249" />
            </Array>
            <mxPoint x="65" y="267" as="targetPoint" />
          </mxGeometry>
        </mxCell>
        <mxCell id="jRU4DG-PdXcAIgFG9BmV-37" value="" style="html=1;points=[];perimeter=orthogonalPerimeter;" vertex="1" parent="jRU4DG-PdXcAIgFG9BmV-5">
          <mxGeometry x="56" y="524" width="10" height="40" as="geometry" />
        </mxCell>
        <mxCell id="jRU4DG-PdXcAIgFG9BmV-38" value="入库" style="edgeStyle=orthogonalEdgeStyle;html=1;align=left;spacingLeft=2;endArrow=block;rounded=0;entryX=1;entryY=0;" edge="1" target="jRU4DG-PdXcAIgFG9BmV-37" parent="jRU4DG-PdXcAIgFG9BmV-5">
          <mxGeometry relative="1" as="geometry">
            <mxPoint x="56" y="497" as="sourcePoint" />
            <Array as="points">
              <mxPoint x="86" y="497" />
              <mxPoint x="86" y="523" />
            </Array>
          </mxGeometry>
        </mxCell>
        <mxCell id="jRU4DG-PdXcAIgFG9BmV-6" value="云端" style="shape=umlLifeline;perimeter=lifelinePerimeter;whiteSpace=wrap;html=1;container=1;collapsible=0;recursiveResize=0;outlineConnect=0;" vertex="1" parent="1">
          <mxGeometry x="540" y="80" width="100" height="660" as="geometry" />
        </mxCell>
        <mxCell id="jRU4DG-PdXcAIgFG9BmV-7" value="Actor" style="shape=umlActor;verticalLabelPosition=bottom;verticalAlign=top;html=1;" vertex="1" parent="1">
          <mxGeometry x="70" y="140" width="30" height="60" as="geometry" />
        </mxCell>
        <mxCell id="jRU4DG-PdXcAIgFG9BmV-8" value="" style="endArrow=classic;html=1;exitX=0.5;exitY=0.5;exitDx=0;exitDy=0;exitPerimeter=0;" edge="1" parent="1" source="jRU4DG-PdXcAIgFG9BmV-7" target="jRU4DG-PdXcAIgFG9BmV-4">
          <mxGeometry width="50" height="50" relative="1" as="geometry">
            <mxPoint x="110" y="170" as="sourcePoint" />
            <mxPoint x="160" y="140" as="targetPoint" />
          </mxGeometry>
        </mxCell>
        <mxCell id="jRU4DG-PdXcAIgFG9BmV-11" value="启动" style="text;html=1;strokeColor=none;fillColor=none;align=center;verticalAlign=middle;whiteSpace=wrap;rounded=0;" vertex="1" parent="1">
          <mxGeometry x="120" y="150" width="40" height="20" as="geometry" />
        </mxCell>
        <mxCell id="jRU4DG-PdXcAIgFG9BmV-13" value="initSDK" style="text;html=1;strokeColor=none;fillColor=none;align=center;verticalAlign=middle;whiteSpace=wrap;rounded=0;" vertex="1" parent="1">
          <mxGeometry x="260" y="170" width="40" height="20" as="geometry" />
        </mxCell>
        <mxCell id="jRU4DG-PdXcAIgFG9BmV-16" value="Actor" style="shape=umlActor;verticalLabelPosition=bottom;verticalAlign=top;html=1;" vertex="1" parent="1">
          <mxGeometry x="70" y="290" width="30" height="60" as="geometry" />
        </mxCell>
        <mxCell id="jRU4DG-PdXcAIgFG9BmV-17" value="" style="endArrow=classic;html=1;exitX=0.5;exitY=0.5;exitDx=0;exitDy=0;exitPerimeter=0;" edge="1" parent="1" target="jRU4DG-PdXcAIgFG9BmV-4">
          <mxGeometry width="50" height="50" relative="1" as="geometry">
            <mxPoint x="87.75" y="320" as="sourcePoint" />
            <mxPoint x="192.25" y="320" as="targetPoint" />
          </mxGeometry>
        </mxCell>
        <mxCell id="jRU4DG-PdXcAIgFG9BmV-18" value="点击APP" style="text;html=1;strokeColor=none;fillColor=none;align=center;verticalAlign=middle;whiteSpace=wrap;rounded=0;" vertex="1" parent="1">
          <mxGeometry x="120" y="300" width="50" height="20" as="geometry" />
        </mxCell>
        <mxCell id="jRU4DG-PdXcAIgFG9BmV-21" value="return" style="html=1;verticalAlign=bottom;endArrow=open;dashed=1;endSize=8;exitX=0;exitY=0.95;entryX=1.2;entryY=0.05;entryDx=0;entryDy=0;entryPerimeter=0;" edge="1" source="jRU4DG-PdXcAIgFG9BmV-19" parent="1" target="jRU4DG-PdXcAIgFG9BmV-23">
          <mxGeometry relative="1" as="geometry">
            <mxPoint x="225" y="652" as="targetPoint" />
          </mxGeometry>
        </mxCell>
        <mxCell id="jRU4DG-PdXcAIgFG9BmV-33" value="" style="shape=image;verticalLabelPosition=bottom;labelBackgroundColor=#ffffff;verticalAlign=top;aspect=fixed;imageAspect=0;image=data:image/png,iVBORw0KGgoAAAANSUhEUgAAAd0AAAIICAYAAAArJjRvAAAgAElEQVR4XuydB7QVRda2N36IWUdHVAyIzigCwigYUBRHRYKSQQEJomSJKioZJEnOEiVIBgVEsuQoKoJgAgQ/CQqoYAADYPjXsz/7/OceTlf3PTfA5e5ayzXD7e4Kb9Wpt2rXrv1muSnP9X+JJUPAEDAEDAFDwBBIcwSyGOmmOcZWgCFgCBgChoAhoAgY6dpAMAQMAUPAEDAE0gmBVCXdf//733LF5ZfLBxs3yq+//ppOTbBiDAFDwBAwBAyBjIFAqpFuzZo15ZkWLWTbtm3y/AsvyN69ezMGAlZLQ8AQMAQMAUMgnRBINdLt26ePVvm5li3TqepWjCFgCBgChoAhkLEQSDXSHTBggBw6eFA6d+mSsRCw2hoChoAhYAgYAumEQKqR7vRp02Tzli3SrVu3dKq6FWMIGAKGgCFgCGQsBFJMuiVLlJAiRYpI8eLFpXXr1rJs+fKMhYDV1hAwBAwBQ8AQSCcEUky6ZcuWleIPPSS33HKLtHz+eVm/fn06Vd2KMQQMAUPAEDAEMhYCKSZdr7mzZ8+W9e+8Iy/36JGxELDaGgKGgCFgCBgC6YRAqpGuOlIdOiSdO3dOp6pbMYaAIWAIGAKGQMZCINVIt3u3bnLllVdK02bN5PDhwxkLBautIWAIGAKGgCGQDgikGuneU6SIdOnSRS6++GJ59LHH5PPPP0+H6lsRhoAhYAgYAoZAxkEg1UjXa3K2bNnk2LFjGQcBq6khYAgYAoaAIZBOCKQ66aZTva0YQ8AQMAQMAUMgwyFgpJvhuswqbAgYAoaAIZBRETDSzag9Z/U2BAwBQ8AQyHAIpIh0L7roIvnxxx/TtdG33nqr1KpZU8tcsHChvP3226lWfqFCheTee+6RAQMHplueWbNmlS6dO8vwESNk165dqVZudEbnn3++3H333XLZZZfJ/n37ZMXKlfL777/rK65nPM+RI4cULFhQfv75Z1m3bl3kvP66XLnkuuuvjxTDOPjggw+S1J++Im3atCnydzzc+fsll1wi+/fvlxUrVsjx48f1ueuZqy5pApplaggYAoZAGiCQ4UiXifn222+X+vXqybx582TosGGpBssjjzwi1apWlRp/k3pqZByU59lnn61BRerUrXsCaaVG+eQxZvRoyZMnj3zzzTeSM2dO+eijj+SpOnWUeF3P0EceO2aMaiNfcMEFsnnzZmnYqJFWq3nz5lKzRg05eOiQ/nvnjh3ydOPG+v8h6datWskNN9wge/bskTJly0aa0rt3bylUsKAc+v57uf6662Trtm1Sq1YtrYvrmasuqYWT5WMIGAKGQFojkOFI1wPktXHj5N133z2BdJmcCxQoIEd/+01WrlolR44ciWBIqErI56MtW+Sif/xDScR7fuedd0q2M8+UX375RT7YuDHyDfmdlS2bXoW6JmdO3e2F3ZH65Unm1CVvnjyybft2Gf3qq2lKuuxyt2zZom2tXKmStGvXTmrWqqXk63rWsWNHXeBUqlRJmjZpIjVq1JAnn3pKd66Qbv6bb5a69eqdMEYbNGggua69VrKccYbky5s3CeliHfnpp5/kr7/+kpIlS0qPl1+W6jVqyCeffCKuZ666UIF//vOfkj9/fvn6669l+/btaf27sfwNAUPAEEgIgdOKdO/BNNy/v3z55ZdqvoRkHqtSRX777TcpXbq0mnE//fRTue666+Tcc89NQnRDhw5VoiA9/MgjETDbt2snFStWlH379skFF14of/35p5R6+GE1twYlvzzLlCkjnV96SYnmX//6l5xzzjmBpPuPf/xDHn/88ROKxEQ7c+bMoKpEnoPRkMGDpUrVqrJt27Yk38U+e336dNm4caOMnzBBZrzxhrAr79u3r0yYOFFJt1TJkrqw+eqrr2TWrFknBEV5ulEjKVWqVBLSpcAzzjhD+6datWpS+4knpHiJEnLw4EGti98zV134DuGNHj16yFtz5kiHDh1C42EvGgKGgCGQngicVqQ7auRI3UE1aNhQrrrqKpn95pvSsVMnmTt3rjBp79y5U1q1bi3FihWTPr17n0B0jz76qDxZu/YJpHvvvfcqcWTPnl3mzpmjplnIKEyKlyd12bFjh7Ru0yZCFkHmZc5jUXGKTey6CcEZJnGHetLEiWoufqJ2bcXKS/GeLV26VKZNnaq78sNHjuiudfHixTJw0CBp1KiR3FaokJ7ps1uG/CHyo0ePRvL0I93GjRtLvbp19b3x48dLv/79I9/4PXPVhY//+9//ykudOsm8+fOlV69eYeCwdwwBQ8AQSHcETivSXbhggcyYMUNGvfqqAjnnrbdk/vz5Mmz4cD037d2njz6/9NJLZcnixaFJN/tll0mzZs00zw83bRKIYe26daE6Kx7pUheIcuq0abrjW7Z0aeBON1RhjpfYQfbu1UudmGo98YTs3bs38rbfs0ULF+qOHtNtxUqVZOKECTJnzpwTTPp33HGHjBwxQpo0bSpr1qwJJF3MyDholS9fXs3dNWvWlM+2btXv/J6FrUtKcbLvDQFDwBBISwQyNOlu3LRJBkZ5GrOzXbxkiQwZMkQxW/z22zJl6lQZM2aMLF+2TMaOG6c7q2uuuUYJOXZ36bfTvfiSS+TZZ5+NkC7xpVevXh2qX+LluWL5chk1apRMmjxZPXbnz5sXSLqYxN94/fUTyvz444911xqUOnXqpDt8HNA+/eyzJK/7PWNXnC9fPrUWLFq0SFavWqULl+nTpyf5HqJcuWKFtGvfXq0KXvLb6XrPIfsN77+vDlT0U3SKfRZUl/POO09uvPFG+f777/V4wZIhYAgYAqciAhmWdDEPX3vttdK2XTs1beKc83L37upMU69+fd3RIcKAGfSd9eulX79+8u9//UtebNVKIMKKFSpEiO5//ud/9IyXv3FuWvnRR9WbFjMsZ7qJkK4rz6GvvKKOWU2aNJHatWvrTi/IvHzmmWdKnptuOmEMHfn5Z/niiy+cY6tFixZ6dtq/f/+IkxjExJm36xnYNahfX3fGhe+8U7EsXaaMnuFWrVpVHdEwL9etU0d3rcTcxoSPqRrP5cqVKwsxuVs884z2Eee2Tz75pGzYsEE9qcuULq0Y8JyrQ65nrrrQ+LvuukuGDR0qK1eulOYtWpyKvzWrkyFgCBgCkmFJN2/evGou1bPb2bN1N8YOFichyJjzSv7e6aWXtJuvvvpq6dunjzouIcaAF7PniftwqVLSvXv3JMOBdyCRNm3ayCUXXywtn39en3+wYYOamoPMy648c+fOLRAvZtv9Bw7IZdmz6znxhx9+mCZDkp3pjTfckCTvli1bypKlS3XX6vfswgsvVKtBgfz5dREyYsSIiOl+2rRpkvvGGzVPznEHDxkiEydO1H/zd55Hp5GjRgmOZZMnT1avbdKff/4pM2fNkm7duml/uZ656kJeXM3q1rWrmr/bmyNVmowjy9QQMARSjkCGJV1X0yEziCD6uhAewpgsuRLEGeSI4cOlZKlSugNLJEHel19+edxPIU/KcSXqQj3Z/UE+p3JiV44HODt/L2XJkkUdy/hf2uAF2wjTDszR9McPP/yg+UYn1zPei1cX/t6pY0cpW7asOnOZwlWYXrB3DAFD4GQgcFqSbjwgH7j/ft1RYf6EMJcvXy5t2rZNGPO2bdpIiRIl4n5fv0ED2fq3Y1DCBdiHyUKAu8SY9GPPm5OVib1sCBgChkAaI5BpSJdzRoJm4LnMnVvOIy0ZAoaAIWAIGALpiUCmId30BNXKMgQMAUPAEDAE4iFgpGvjwhAwBAwBQ8AQSCcEMizpcn73xx9/xIUpLdSC0qI/4qnwUA7iAlyBwat5x86dsn79+kjxfqo/3gs4NhUtWlS+/fZbDXnppZtvvlm9kH/59Ve9VsN9VpJL2SdIgUjjR+fNKwcOHNB7y8eOHdM8Xd8lqk4EHjhfRSfCWHJ9KajtadF3lqchYAgYAokgkCFJ96FixTS+7r1Fi8Ztc5CyTyJApeY3LhUewj2i/EOkKqJGcdXp7iJFtPgwSjvEie7Qvr1eB+JaEKlC+fKK1+7du9X7F09j7iIfOnTIqezjUiAibvKLL7wgH338seTKlUsdx+r9LX7g+i5RdSKCY1yaPbu2h0AY5593nl4He/PNNyNdE6/tqdlvlpchYAgYAilFIMORbpEiReSuwoXlscce00AXJNSGvCs68ZR9uJ7D7u+cs8/WKy7sjm7Kk0dDRB4+fDiy4yMABNGI2bV99913KcXW93uXCs9zzz4rJUqWlOrVq+tulaAdXtvCKO0gPPD78eNCtC6PdIcPG6bXeypVrhy5Qwt2RJlyKfu4FIjemj1b7xV36NhR6JNXhgyR2k8+qX9zfZeoOlE0mPR9y+eek2IPPaRBUUhcv4rXdu+ZKRCl2XC2jA0BQyAZCGQ40h04YIAGv+A/TzSdwBiemTGesg/mWkIYcp+UHSR3QwnG8MaMGRqpCnM0QTWQhSPyE+bRqtWqadQkv5Qaqj/xwiROmTxZwxju3rNH6/L2229Hrh8FKe306tlTsmbNqv8dO348QrqQL9YBAnDQVhSOUF/yJPBcqj9e+2MViNauWSPDR4yQCRMm6O6ZMJsv9+hxQlCM2O9Sok7k1WXq1Kmye9cueeHFFyPd49d2XjAFomTMCPaqIWAIpCkCGY50QaN48eLSsUMHKXLPPXHBiY137JEuJtEuXboIijVovd6UO7c0a95c0OY9fvy47pwhuunTpsn011+PxHCOV0hqqP7EI92lS5boro2IVxddeKEQvYr2fLlrl9bbT/WHnTzEU6FiRRWQjybdK664QqZOmSIsFEgQeTRhuVR/eD+eAhH3YVmUEJ0L2USIHBIePnx4BK5436VEnYiMOUOePGlSEtEJV9v5xhSI0nQOscwNAUMgGQhkKtIlbnDXLl1UFOHMrFn1rLR+/fqybu1a1YqNjgyF6RnTaVqmeKSLmg7xjNmJnnXWWQIJI9gwZuxY8VPaeXX0aMHci4MU4RaJOX3899+lVatWGpWL8Jf5CxTQUJc4MkGUxCdetWqVNs+l+uOnQPTAAw+oAD3nw+yssRwQJpJ6klyqRh6myVUn4rt2bdvqWT46vfQXxO5qe1r2n+VtCBgChkByEciwpEvYP8/BKLbRfjvdR0qXTkK6mD4RR0BaD2H2sX8TRhgQU6r6QxnxSJf4w4Sm9FSNUENikTBo0CDVwo2n+rNs2TKVKoxN7733nhAdC1Uj1H/69O2rr2AKRuwdAYToFE/1x6VORKARonux42UnjWPTggULNEvXd16ZyVUnwnsZPV92+8R6JnkyjX5t5++mQBRmRNs7hoAhkB4IZEjSxVEHxx1Mw5988olef2Gn5afsw06MM10/0u3Zo4eaLdn9QSBF7r5b9uzdm+TKTWxnpET1x6XCwy4UjVmUfTALI4zAjhvSdCntcK6KkxgJtSXPXI4eLqbgY0ePqprPTTfdpOfXnGWPnzDBqezjUiDKde21qr506OBBNfXiTIUDWJByUaLqRLSrXLlyGmO5XPny6ontJVfbeccUiNJjKrEyDAFDIAwCGZJ0MbtiMi1cuLCaNlEDIsi9n7IPXrVrVq+WUg8/LF27dpUlS5bod+x0GzZsqPdhe/bsqXKAJIiqVevWoTVzwwAd/Y5LhQcCGTxokHCvlrRq9Wrd9WLGDVLa8cro36+fkq53bosZFyLmrJj03vvvyzPPPKPtdCn7uBSI0OZF5QmixxyOlq6nMez6LlF1IuqNSAULFtSh/FJs23nPFIiSO0LtfUPAEEgrBDIk6aYVGDguZTvrLN05J0c1Jy3qg+kVQkOJJzb5Ke246qGqRpdcome9sXkGKfv45csigAUQ16uwNIRJKVEnCpN/vHdMgShR5Ow7Q8AQSG0EjHRTG1HL75RDwBSITrkusQoZApkWASPdTNv11nBDwBAwBAyB9EbASDe9EbfyDAFDwBAwBDItAka6mbbrreGGgCFgCBgC6Y3AaUm6LgWi1AQYb+fSjzwiXbp2TSjbIDUkPKy7dO6skZ527dqVUBlBH7kUgVwKRF6+fqpGfkpJQWpBiX7np3jk1TOeolOY9gXhZ88NAUPAEEgOAqcd6QYpECUHnKB3uTdK4H0/taOg74PUkIiStf6dd6RO3bqRONNBeSb3uUsRqHfv3lKoYEE59P33cv1118nWbdukVq1aSTy74yn7uJSSXGpBiX7nUjxyKTqFaV9y8bT3DQFDwBBwIXBakW6QAhHRnI4ePaoxjQkSQWCNDzdv1ohFqBNdmSOHfPvdd7Ju3bqI+hDgeXd6r7rqKhVFWLNmjd6DjSXde4oUke9/+EHzDUrx1JC8b3TXliePbNu+XUa/+mqakq5LEcilQERd/ZR9XEpJ0bjEqgUl+p1L8cil6BSmfaZOFDSS7bkhYAgkB4HTinSDFIgIpXhzvnx6t/Trffs0/nL5ChWkQf36wm4JUXS0YSHUKlWqyM+//KICCOPGjhXCPiIKf8MNN6iazsKFCyOkW/S++6Rdu3aqZtO0WTPZuHFjYB/EU0PiozJlyqh4AMRNiEVCHwbtdFND8YiyYxWB+JtLgchP2cellBQNTKxaUKLfhVE8ihdyM6h9pk4UOIztBUPAEEgmAqcV6dJ2lwIRpPufAgU0ghXhHpH5Q8id/yV8IWQMqWJyffrpp2XdO+9IhQoVpG2bNlKlalXZuXOnigOw80UmkJ0uQu7Lli+XovfeK083biwff/xx6C6IjRHNh8j37dixQ1q3aRORpAsi3dRQPIqnCER9/BSIXMo+LqUkD5x4akGJfhdG8ciPdF0KS6ZOFHoo24uGgCEQEoFMR7o/HzmihBadmFwhVoLnE4mK3e1zLVuqlN7zLVtKwUKFdCccmyDdlzp10j8j3o5ebbRSUVAfxCNdznAHDBggU6dN08UAYgxBpBtUTtBzlyJQPAWinV984VT2cSkleXWJVQvi74l+F6R4RN5+pOtSWArCzZ4bAoaAIZBcBE5L0vVTIGKnu3/fPun+8stJcELJB3Nu5y5d9O+YK9HWRXe2aZMm8lDx4lK2bNm4pAtZo66DSXjUqFEyYuTI0H0Qj3RRBCKfSZMnC9618+fNCyTdlCoehVEEilYgQvXIpWrkUkoCnHhqQfw90e/41qV45CJdr7PiKSyZOlHooWwvGgKGQEgETjvS9VMgAg8/0l24YIFs3LRJUBuqW7eu1KxZU8UCIF1PoaZXr14y+623BG/Yb7/9VrZu3ZrEkarOU0+pSbpuvXqyadMmJ/x+aki//vqrqgoRW7lJkyZSu3ZtrUvQTjclikcuJaEnn3xSNmzYoKb4MqVLa51QKlqxYoXW0U/VyKWUBDB+akGJfudSPHIpOrnaRz1NnSjkLGKvGQKGQGgETjvS9VMgApEB/fvLvv37VVEoOlWrWlVatmyp0oCcp15zzTXStm1bWbJ0qb6GaZIJGnLD+xlJwXfffVeJ6LnnnpP/3n+/OhyNHDFCrr76apUQ/OOPP3w7wU8NibPm3LlzK/HiGbz/wAFVQMJsjfk6LZJLEcilQBRdl1hlH5dSEt/5qQUl+p1L8cil6BTUPlMnSosRZ3kaApkbgQxFunjzXn755XF7DFL65ZdfEu5NgjJAqjhWxUs844wVGbvffvvNWU5K66mKQP/8pzprJeeMOOHGOz5MVIGILF1KSa66JvJdIopHXh0xd6O8FNuvpk6UFiPK8jQEMjcCGYp0OT8tUaJE3B6r36CBmnxPhZRR6nkqYHUq18HUiU7l3rG6GQIZE4EMRboZE2KrtSFgCBgChoAh8H8IGOnaSDAEDAFDwBAwBNIJASPddALaijEEDAFDwBAwBIx0Q46B9FIu8qpz7733CoE8uMoUnajHfffdp9d4khP9ytVMnMQK33mnXHvttXLgm29k9erV6lSEMk+tmjX10wULF+oVqtgUpJQU+35KlZlCdpe9ZggYAobAKYmAkW6IbklP5SKqw9UZwksePnJEIz998umnES9mSA4RhL1790rpMmVC1N79yrnnnivDhg7Vq0pf/O//CndeiYg1/fXXNTjH7bffLvXr1ZN58+bJ0GHDTsgsSCkp9oOUKjOluMGWgSFgCBgCJxGBDEm6kAE7s79EdFf23Xff6T3Z+4oWVdWg77//XiElvi8BHDzVn3jf8d6///1vOStbNiW7a3LmVJUhT782SLkotfuO4B7cJyZQBlegqBOiDPv379einn32WSlbpowgclD50Uf1XjHpxhtv1NjRtBGN3FWrVmkQj6Bn3D/mHnL1GjVk+/btei2KKzRfffVVpGmvjRun95JjSdellJSoMhNXpUzZJ7VHleVnCBgCpwoCGY502ekNGTxYJfYwi0IwVatV0zutmD+nTZsmI/8OxThv7lxZumyZ9OvXT/y+w0zbvl07QRd23759csGFF8pff/4ppR5+WH7++WcJUi6K15EpUf3p0L69IEG4cNEi+fabb1RMAQL+6y+WGCJvvfWWLH77bQ1LSVtfHT1a/965c2clY3bAmKDBplLlynqv2PWMXTP5N2na1HdM+pGun1JSSpSZTNnnVJkarB6GgCGQFghkONKFAJDeIzYyk/v0adPUFDpkyBA1ybL7qlipku6WJowfr4TM/V3Xd5AuZ6hlypaV7Nmzy9w5czQKlCfR51IuitcpKVH9Iexjs6ZN5csvv5SVK1fK6DFjlBRJ119/vcycMUPrVr5cOZUbrFmrVoR0773nHnn4kUeE0IeEthw0eLBMmTJFSdfvGQsTrAU9YqJ0RbfLj3R5J1786JQoM5myT1r8zC1PQ8AQOFUQyHCku27tWjn77LOTRGqaP3++dOjYMUK0j1WpovF97ypcWAmY5PoO0s1+2WVC7F/Sh5s2qaTd2nXr9N/JJd2UdC671Mcff1wIzMD5Kjv4Ro0ayfbPP5ennnxSmjZtqhKCmNIRgS9eooSa1yHWS4jZ/PeOFbLdtHGj9Ord2/ls5syZ+l6Xrl2TvdP1I920VGZKCbb2rSFgCBgCJxuBDEe6SN1NmDhRxo4dGxc7FIOQ5MPBZ9r06fLqq6/qe67vIN2LL7lEz0s90kWMnh2gR7p+ykXxKpFS1R/y5KyVHX3NGjVUYODlHj10t87ZrRfukvPert26CcQJ6V6ZI4cKLpCwAKAHjFOU69ngQYNUoafa4487SRcv6oEDB57wTrydbkqUmUzZ52RPCVa+IWAIpCUCGY50UQLCQap5ixZ6babI3XfLnr175dNPP1WcGjVsKHXq1NFzTbx7PYcg13dBpOtSLorXOSlR/UF84cjPPyu5nn3WWVKyZElBlACpP+T0kB988803tdhxY8fKTz/9pAIMEGupkiXlyaeeUkcoRAXQDV60aJHz2YMPPih9+/SR/gMGqEn61oIFNf70e++9F2lan9699TpR23bt1KGLMl1KSSlRZjJln7T8uVvehoAhcLIRyHCki+oOKkHc9yTh7NSqdevIrhRymP3mm7J582Z5onbtCL6u79q0aaOm2ZbPP6/vf7Bhg5qaPfOyS7kotTuwXNmyWu+c11wjx44dk/kLFqgz1z333ivdu3WTEiVL6mKDVK9ePUFS8O4iRQRNXBYgOHFBiOzSkeFD7QhC9nuGd3fDBg1URpB2sruGrJcsWRJpGouc3r16yVVXXSWzZ8+Wjp06iUspiQ8TVWYyZZ/UHlGWnyFgCJxKCGQ40vXAu+jCCyXbWWfp9aDff/89NKaJfhe6gFR68amnnlLv5Tlz54bKEWJlZ9zppZfUwQyvZS+5nnnvQNSYmdnFeo5boQp2vJQcZSYvG1P2SSnq9r0hYAicyghkWNI9lUFNjbrdc889cvinn2Tzli2hsvOI9YUXXzzhfdezUJmn40um7JOOYFtRhoAhkO4IGOmmO+RpUyAavgQI+fzzz08owPUsbWpjuRoChoAhYAjEQ8BI18aFIWAIGAKGgCGQTggY6aYT0FaMIWAIGAKGgCFgpHuajYEg1R9iInfp3FmGjxgRiS+dFhDccssterXrwIED6kmNJ7aXLrjgAuFqEB7lO3bulPXr1+sj/sZ1p+i0bds2vfZ1Xa5cct3110ce4Sj2wQcf6L+vuPxyyZsvX5LvCIdJLGlXnnxw8803S4H8+eWXX3/VCGBe3G6e+dUzCC+/74iLjdc98a25esX9a7zFveRXF0Kdcm2NSGf79+2TFStXJst5EA/1okWLaixu72qdK88gzKivd3tgU4wKlh82//nPf4S42iSc9T766CM5evSo/vvuu+6Ss885R3744QfZuXNnEidAV98SMz1nzpxJiqTP6fswKR4ufOc3dl1t4LscOXJIwYIF9UYF8dujx3yiz1y/I788E8U6aMy7fith8LZ3/g8BI93TbCQEqf4QzWv9O+9Inbp1I6SV2hBUq1ZNQ3J+9PHHkitXLg3DyfUmEsQxZvRoJR4mx6uvvlqvPJEmTZwol2bPrv+fIBnnn3eeemNzL7l58+YaKOTgoUP6fOeOHRqZi1SpYkVp3769yhJ6acGCBRoYxJVnhfLlpUOHDrJ7924VlsALHhEJ7im76unCy/Vd7969pRD3oL//Xq6/7jrZum2b1KpVS8t11QW88uTJo1fFIBkIi1CgYb32iStOTO8lS5dKy5YttfquPF2YQSqtW7WSG264Qfbs2aOhU8Ok0aNHS768eXVRA/nyv4QwpU0EriF0KVfWiDFO+NKJEycG9m3bNm00Zvp3Bw9GqjBq1Ch54403wlRJv43FxTV2XW1gATD275CtLLq4stiwUSOtR6LPXHVx5Zko1q6x6xqfocC2lyIIZDjSZTImvjLRl7797jtdUR4+fDgyuP3UgrzBX6BAATn622+yctUqOXLkiPM7HJPYIaBbS6hFL48LL7xQPvzwQ312ztlnq5IRu7Gb8uQRQlJG1ydeeTg2ZTvzTPls61bNk7jIEBQrfRKBMQreeqtOQPzd250EjVuX6o+umPPkkW3bt6s0YFqSLkrSnj0AACAASURBVHKE4ENoTlSaXhkyRGo/+aT+7blnn9W7xtWrV9edF9KCXoSt6PYR4rLlc89JsYce0p0RpJv/5psjEbei34V027ZtKwULFXJCFJvn8GHDNNY2whC5b7xRBSSI6U1AkbD1jC3Q9d1FF12kbaFfCXrS4+WXVd0JFSxXXdjlbtmyRcdr5UqVpF27dkpYkG9QguBmzZolvx8/rtrMHumGzTMWswYNGmh40ixnnKEkmhzS/fqrr6R9hw66cGCMcN9+ytSpSrqTJk2Sca+9Ji1atJDqjz+ui58vvvhCF1R+fQvpYk0Bw+QmP1xcYxcy82tDx44dVQYT73sistWoUUMD1WAJSPSZqy6uPF31dGHtGruu8Qn2pg4WfgRmONJtUL++sALE7MguCvNclSpV5OdffnGqBXEFB8k8hATYZTGBEaMZsXY/lSHIAB3Z5cuWSe8+fRTVqVOmqAkMgYDVq1ZpbGTyIx8m0zdmzFBVo6Dy/MJOsoPwyqB88i5brlyoHvVT/SlTpox0fuklndwhfEy4QaSbEqWktWvWqPl6woQJuoMEP8JYQmpTJk/WPti9Z4/eJ0YZip1wbJo6dars3rVLvCtQkC4Rt1gsscCBSLzFDRMzRFS/QYNINp999llkUeX9MTZPCAitZHaNmOXBiDGBiTJsPWPrHfQdCzn6lDFc+4knNHY2Y8hVl+gyGFeobFWpWlV/A0GpV8+ewpEC/x07fjxCumHzjMXM+47gJ6VKlUoW6WJORgHstttukyaNG4sXatUjAsQ9GJv8rgYMHKi7XVffQrp33HGHRmnzEn3njQsXNn64uMYuZObXhtenT1eBlPETJsiMN97Q+PB9+/bVkLWJPnPVxZWnq54urF1jN2h8mjpY0C/x/z/PcKTrESamKAgKM9nTTz+tcYZdakGjRo5UUmzQsOH/RVZ6802NrDR37lznd5B81apV5aHixVXVh8FOfGMmPCYHJs8uXbpovGdW/zflzq1hGYPK8yPdJ2rVkiZNmkjR++7TIBXs7DkjCpvixUKmzujuEmnK+3EEkW5KlJIIW4nZkKhepUuXVjKDhIcPHy5LlyzRVTHRvghUkjt3blUq+nLXrkgT2b1MnjQpiegEog+3FSqk533s0jgThXiYBD3zcnRQD0j6vfffd+Z5xRVX6AKHBQaJBYBH8n713LV7t467LDEdcvTYMV1MBLUPIY16devq1+PHj5d+/fvr/3fVxSsKEyymX9rpRVtz1QVLDORSoWJFNQnHI93YPD0JScqM1w9+pIu1x1UXiODWW27Rc04Iif4j3jdm5mgiIH+kK7E29Onb19m3kC5jxzsb5lvipzMXJIqLa+y62sDvf9rUqXoefPjIEbUCLF68WAYOGqRzQyLPnL8jR56JYu0au0Hj09TBws7QGfBMl87lx0b0JM602C0917KlDmyXWhBxhWfMmCGj/hZAQBgBU/Cw4cOd311++eUyf948ef6FF3TSoHxMapzbQLrEd+7apYssXrJEzsyaVc8n69evr3GMXeX5kS5nfayW5a+/1BzLShkB+bApHulyhsv55tRp03SXxSQXRLphy4v33gMPPKCmU/qHHRYT+YgRI2TM2LGyaOFCJU52lCyc+KGPGTNGn3mpXdu2cm/RorqT+vPPP08ogt3NyBEjVFFpzZo1ThOkK09iTucvUEC6d++ujlosEojpvWrVKt96zkZQIypEppc/WsxoMAe1DxMzDjDly5dXUzFSjhwzuOpCGeyQCcWJA1OtJ57Q83AWL351KVe+vJpwcQ4bOWqUhhA9/vvv0qpVq4gFIF6e0WC7+iF2p+uqC7hEmzyvuvJKNSXzm+3Ro8cJpLti+XKZMXOmDB48OCHzckpwcY1dVxvodxbHlI2y2cQJE2TOnDkydNgwHROJPAv6HfnlmSjWrrEbND5TMl9ktm8z3E4XssRM6pmUMMFwDscuxSVcwM4WYkR311tNc57EhB8keIASDxPUTTfdJJOnTNEJxCPdR0qXTkK6mP/q1a+vO2m/8lq3bi05rrhCd8SY095Zty5iaqNunBmzS3m0cmUt84EHHwy9241HukxiOJggmoAHLYuIINJNqVISiyJM2ex42U3iEIVz0+TJk3WX4yk60Z/gNGjQIO0X8GCHwM5g8N99FfujhLhWrlgh7dq3V0tF0JmuX57gwvfsqEiYwd+aM0f69+/vrCchM2MTCwsWCEHt875jPG14/33BuYpx6KoL3xBbu1ixYlK/Xj359LPPIsX71YXFFQIZsQkhC88M75dnmH6IZ1524RJNBOQPxuede67WJXqnixUKPWukJlHPSvRMNyW4+I1dVxuwQOTLl0+tZ+zSWZBzJKViJQk+Aye/urjyTBRr19gNGp+mDhZ+6ZDhSJcdJA4hqAbVrVtXdwqYBINI9+Xu3VVvF0Jkt8DKH5PlO+vXB5Lu/fffL/379VPxgJKlSqkDUBDpusrDHI43IN63kHTzZs0ipIsD1f9kzarOW5DuM888IxD7119/7exVl+rP0Fde0bNVzNYIG4BZEOmmRCkJRxt28ocOHlQTMc5UOE9xjs5ukh0euzVMVtQNhyvIj4QOMvGX2anhVewlTPx4hLJLrlunju4UH33sMT1fDyJdvzyZEI8dParCECxuOCvlPB5LQ1A9/TrD9R1yjRs2bNCFSJnSpbU/KJurQ6664FzE+S9E9cHGjVo0pmzPEdCvLvQ5Zl8S4xH/Bxao7JCC8vTDDHM0ptvKlSvLPUWKaP1ZRHEu7UoQwa+//CKvDB0q11xzjf7mli9frn0P6eJZzeIThTCecyyBmTaIdHFeYvHlJbD1BEESwcU1dl1tYC7hKIpxXfjOO3Vu8VTOEn3mqosrz0Sxdo1d1/gEZ1MHO41JF+k7DvUhGc4p+YHi3ciP1qUWxHtMqqgQsStBLYfdFylIZYiyWOkx6Xsi8azs1qxerSbFrl27qioPplRItGHDhlovv/LYRSLLx44N0sAhzFM1glwQgadMdk7sTnHICEou1R/OTSE3TF/7DxzQ+7E4D2G+TovEjgxTKBM+JMmk6GkTQwRYDrjzR1q1erXuer3rL0gSMrHj+RmdcMLCw5jEGR67YO9aCQTMkcPtd9wRtzl+eWKmhoy8+6OcAbPIgZSC6uma0P3ax04CD3ISfTtz1izp1q2bjkdXXZjwbrzhhiRF8htgzIdNLBohXe/MOihPP8w8L+/ocjFf48TnSvg4QJAkPLhxOurWvbsuYLFsZL/0UvXex6mOxQVe9iRX32Iqr1qlSpJiOY4J83vxPorFxTV2XW3AOoUVjTvfjGWOU7yjrESfueriyjNRrF1j3jU+wdLUwcL+EjPgmS5NY5fJToz7lMlNTLBM2kG7hOh8uROHKDznupxDJSf5lQex8MPxriJF54k5FEJm8vc8MTHVcr4cL0Ge8a7dRL+LOZO6sCOJd06anDaFeZe2cWZL+6Kdc7xvaR+k7F2TCsqTd7new//ShrB3VIPyVVwuuUTPO+PVJbn1DGof+dG/lIXH+wl95KhLUFvseeogEDR2XaVAXPRrPKWuRJ4F1cWVZ6Jo+I1512/F1MHCo53hzMvhm5Y6b3r3BrmKgOkIE/PJSOzkSpQoEbdozsXiXbs5GfW0Mg0BQyDzIWDqYOH73Eg3ACvOr1htcsYafTUhPMT2piFgCBgChoAh8H8IGOnaSDAEDAFDwBAwBNIJASPddAI6oxfDuTbB5/GejXdeldHbZ/U3BAwBQyA9EDDSTWOU8UL2OwcOUgRK46qFzp4rRs+0aKFRuHAmC6viEroAe9EQMAQMgUyCgJFuGnY0cX1RsSG6UrwUpAiUhlVLVtZEoyER+cuSIWAIGAKGQOIIZDjSRYGHqyhEVkITlJB93PXzElFhcHgiri8BD4he9eHmzfoYE2k81Z+gPCmLC+9/ieh90+hrPn7lERDirsKFBZUWAhKQCOfoXe1xKQK5yktUgSjxISIaQpJAF9GB5VOSn31rCBgChkBmRSDDkW7nzp2lbJkyauLEdMt9XaTZCMJAIpzgzfnyKTF/vW+fxkMuX6GCU/XHlScmYIJcEBGKsiD6qtWqRaLe+JU3cMAADcTBf57YOiHiUMgh+SkCucpLRIEoJWpB3o+CO8qbt2zRQA6WDAFDwBAwBBJHIEOSLvqzDz/yiEYuIiwkotdTpkyJkO5/ChTQEIGEgyMGLUE0XKo/kK5fnq+NGxcJnwfpQkDTX389EsMZ0o1XHpUpXry4dOzQQYrcc0/cHooXJ9lVXiIKRClRC0KRiB077SBe9LLlyxMfafalIWAIGAKGQMa7MgRBXkIc4aZNtfsg200bN0qv3r0jpPvzkSMqYxedXKo/rjzXrV2rUmTRUZxQJyJmrLezjldeoqTrKi+lCkTJHe9ly5aV4g89pHJlLZ9/XtavX5/cLOx9Q8AQMAQMgSgEMuRO98ocOVTTlsTOE/1Mzh09Ety/b590f/nlJB3tUv2BdP3yJBg78VzHRknPRWfMTjdeeR7pEh4Nub94Kd5ON6i85CoQpVQtiHoTpxp5QIToLRkChoAhYAgkjkCGJN1SJUtqQHxi2BKYnV0tclou0nWp/kC6fnmiZoSYNzqrmKuL3H237Nm7Vz799FNneTxEbP2VIUNUwg+HLgS7iUPsUgRylZeIAlFK1IK8YaWOVIcOCThZMgQMAUPAEEgcgQxJuhAfDkKQF97EyIt5d2EH9O8v+/bvl549eyZBxaX6A5n45YkiD3khB0hChKBV69YR1Ry/8ngXZy6u2xQuXFgViDhn/vzzz8WlCOQqL1EFosSHx/99iQwiHtVNmzWLCDCkNE/73hAwBAyBzIhAhiTds886S2X52MV5XsthOy+e6g+kG5QnV5CynXWW7lZTS+HGVWe/8uIpEIVte6LvoZvapUsXlbvzFg6J5mXfGQKGgCGQmRHIsKTr6YKmRud5pJuaeaZGvU61PPAWP3bs2KlWLauPIWAIGAIZBoEMR7royqLriJk2tVJa5JladbN8DAFDwBAwBE4fBDIc6Z4+0J/aLXk5xvs7urbc2bVkCBgChoAhkHwEjHSTj5l9YQgYAoaAIWAIJIRAhiLdiy66KNmOUwmhEueje++9VwiCsXHTprhZ4p3cpXNnGT5ihOzatSvFxaa3AlFQeandPj+ACMTBFa0DBw6oh3j0GfIFF1wgd911l+DhvWPnzkiwDv6Gg1l0QhGJkJvX5col111/feQRjndeWE6kCvPmy5fkO8KLbt++Xcvxy5MPbr75ZimQP7/88uuvsnLlSnWw85JfPYMGhd93eI7jPU90tf3798uKFSs0SpqX/OpCyFKurRGVjLvkK1auTJYTYJYsWaRo0aIa29y7IufKMwgz6uvdAtjk8zuKxeg///mP4PxI+umnn+Sjjz7S2Oqku++6S84+5xz54YcfZOfOnUnmBlffEoM9Z86cSYqiz8OqZ8XDhcz8xq6rDXyXI0cOKViwoN6MWLduXZIxn+gz1+/IL89EsaYNrjHv+q0E/SZOx+dGuiF6Fa/dF194QQ4fOSJvzZ4tn3z6aZIIVWRB1CoCSNSpWzcyqYfI2veV9FYgCiovtdsXr+HVqlVTnD/6+GPJlSuXbN26Ver9HQQF4hgzerQSD5Pj1VdfHQk6MmniRLk0e3bN8rzzzpPzzztPvdvffPNNad68udSsUUMOHjqkz3fu2CFPN26s/79SxYrSvn17OfDNN5HqLFiwQAOtuPKsUL68qkft3r1bPbrxZq/86KN6l9lVT9d4cH3Xu3dvKVSwoBz6/nshKtnWbdukVq1aWq6rLuCVJ08evV8OyUBYT9WpE5p4K1asKB3at5clS5dKy78Vplx5ujCDVFq3aiXED9+zZ4+UKVs21M9j9OjRki9vXl3UQL78b81atbRNBJLBuY+redx/JxzsxIkTA/u2bZs2Qtu+O3gwUodRo0bJG2+8EapO8XBxjV1XG1gAjB0zRjWqIa7NmzdLw0aNtB6JPnPVxZVnoli7xq5rfIYC+zR8yUg3oFPZKXAXlx8FCkFMsggosOOIrG7z5JFt27fL6FdfTUK68dSCcAK7r2hRVT7ydkfs7Fg9E0CD5FIgYsd5zz33yFVXXaUiDGvWrInselzqRK5musrTFbNP+1L798CC5sMPP9QQm8R8JrBI7Sef1L899+yzUqJkSalevbruvM4999yIYlN0PVB1avncc1LsoYd0ZwTp5r/55kgEs+h3Id22bdtKwUKFnE2JzXP4sGGSPXt2FdrIfeONMm3aNFWSIkBL2HrGFuj6DgsPbYFYSpYsKT1eflmq16ih48VVF8buli1b5MiRI1K5UiVp166dEhbkG5QguFmzZsnvx4+rdccj3bB5xmLWoEEDyXXttZLljDOURJNDul9/9ZW079BBFw6MEe7NT5k6VUl30qRJMu6116RFixZS/fHHdfHzxRdf6ILKr28hXX5zYJjc5IeLa+xCZn5t6Nixo9x+++1SqVIladqkidSoUUMD/2AJSPSZqy6uPF31dGHtGruu8Qn24Jk/f36dy7A2ZIZkpBvQy6z0ke9buGiRfMvqevlyJWAmwDJlykjnl17SyQ8PaMyR3k7XTy3o4MGD8vbbb+tEPXLkSC193ty5snTZMunXr5/+20+BiHvJ48aOFUI7Yu5j10BoxoULF0qQGpKrmX7ludrnl19KVI3Wrlmj5vkJEybo4mb5smXaPrCaMnmyfPnll7J7zx69nw2G7IRj09SpU2X3rl3iXf+CdIk2tnLVKjU3QySHDx/Wz5iYIaL6DRpEsvnss8+UpKJTbJ4QEFrJ7BrBnTHwWJUqOmmErWdsvYO+Y7HGLp9dTO0nnpDiJUoIY8lVl+gyWKihllWlalXB9B6UevXsqQFd+O/Y8eMR0g2bZyxm3ndPN2okpUqVShbpYk7mt3LbbbdJk8aNNUgLRw8eEYweM0Z/e6tXrZIBAwfqbtfVt5DuHXfckUSqkr7zxoULGz9cXGMXMvNrw+vTp8vGjRtl/IQJMuONN9Ri1rdvXw09m+gzV11cebrq6cLaNXaDxieiKj169JC35sxR61FmSEa6Ab1cs2ZNada0qU74nN3xA4d0SQzgHTt2aBhKb/B4pOtSC8KEyu6yYqVKusqbMH68ygVGk0i8uMwVKlQQJgwmTs6w2AExKTL5BqkhBQ3meOW52ueXX0pUjaZPn65mw2bNmknp0qWVzCDh4cOHy9IlS3RVvHbdOtVKzp07t1DnL6POz9m9TJ40SRo3bqzvkRo1aiS3FSqk533s0rBQgB+ToGde9vqT9yHp995/P9K8eHleccUVMnXKFI2KRmIB4JG8Xz137d6ti6QsMcAdPXZMx1ZQ+2hTvbp19evx48dLv/799f+76uIVhQkW0y/tfKJ2bf2zqy6c40IuFSpWVJNwPNKNzZNFqJfiYeZHulh4XHWBCG695RY954SQ6L9qjz+uVqJoIiD/xW+/rdaGPn37OvuW3xBjxzsb5ttnn31WY7gniotr7LrasHTpUpk2daqeB3N8hRVg8eLFMnDQIEn0mfN35CgvUaxdYzdofP73v/+Vlzp1knnz50uvXr2CpqnT4rmRbkA3Emry8ccfV/MP5jEIjol8++ef6xku539Tp03TXQiTgEe6LrUgj2jZHZUrV07F7iHg6BSPBJ9v2VJNoex2YlOQGlLQaI1Xnqt9Qfkl8vyBBx5Q0ylnlSwmmMhHjBghY8aOlUULFypxghlnePzQx4wZo8+81K5tW7m3aFHdSUWrQnnP2d2MHDFCFaowy4cxL8fLk9Ce+QsUkO7du6ujFosEYnOvWrXKt56z33pL6xyb9u3bJ6UefjiwfSywcIApX768mopZDH62dauGGfWrC2WxQ+7dq5c6MNV64gk9D2fx4leXcuXLqwmXBebIUaM0BOjx33+XVq1aRSwA8fKMbperH2J3uq66gEu0yfOqK69UUzJkxO4olnRXLF8uM2bOlMGDBydkXk4JLq6x62oD4xoHKspmDpg4YYLMmTNHhg4bpmMikWdBvyO/PBPF2vXbDBqficwTGf0bI92QPfjkk0/q2SlOOXiPYvbkR44DxqTJkzU28fx58yKkG6QWNIdJeOlSwYFp2vTp8uqrrwaSLmc+DxUvLkjuxaag8oKaGY90Xe3zyy+lqkaXXnqpmurZ8bKbxCEK56bJkyfrLocdCQn8Fi9ZIqg8kTAvskNg1zB4yJC41YO4Vq5YIe3at5e5c+cGkq5fnuDC9+yoSJjBMY/179/fWU8WcLGJhQULhKD2ed9BeBvef19wruJc01UXvunUqZMUK1ZM6terJ59+9lmkeL+6sHhcsnjxCfV87733ImZ4vzzD9EM887ILl2giIH8wPu/cc7Uu0aSLj8PcOXOkS9euMnPmzIRIl/xTgovf2HW1AQsEx1cdO3XSXTom8t59+gi71USf0Q6/urjyTBRr19gNGp84Pt54441qucDikxmSkW5AL1erWlWO/PyzDgziM+PIwg+CiX3oK6/o2WOTJk2kdu3auvvwdrpB6kSNGjaUOnXq6I+8dJkyet7o/ehxEqpYoYLusHEMYeeHaZArGcOGDlUzDDsnPEJxKsIsHVSeXzNdikeu9vnllxJVIywJF19yiRw6eFBNxDhT4TzFGSu7SXZ47NYwWVE3HK4gPxIWA2QU2anhVewlRCLwCGWXXLdOHd0pEj8a83zQTtcvT/r/2NGjKrRx00036Vkp5/GcywXV0w8313cs+DZs2KALkTKlS+t4o2wWf6664FzE+S9E9cHGjVo0E1vsmXVsnRjTmH1JqHOx2MRRjB1SUJ5+mGGOxnRbuXJlIZY39WcRheXIlSCCX3/5RV4ZOlQQLWnfrp0sX75c+x7SxbP6nXXr9LfEc44lMNMGOVLhvMTiy0tgy3+u5MLFNXZdbcBq1qB+fR3Xhe+8U61o3nyQ6DNXXVx5Joq1a+y6xidYe3MalhWsRZkhGekG9HK5smX1HCznNdfoudL8BQtk4IAB+sPmXJHJH9PQ/gMH9P4ozjV42wapE1177bWCxi+E4J2zURWXAhHP2SkwCUNunEkhG/juu+8GlufXTFd5rvalxY+DHRmmUCZ8SJJJEYcZEhPe4EGD9H4sadXq1brr9cQnkHhkYsfzMzrhhIWHMQm8WCx510ogYM73br/jjrjN8csTMzVk5N0f5Qz4mWeeUVIKqqcfbq7v2EngQU5iVzxz1izp1q2bmt9ddWHCu/GGG5IUiWMLRBU29e/XT0nXO7MOytMPM8/LO7pczNc48bnSqJEj1buXhAc3TkfdunfXxSaWjeyXXqr3dFl4srjgFgHJ1beYyqtWqZKkWByXcGAKm2JxcY1dVxvQxx4yZIje+WYsc5wy6m+rV6LPXHVx5Zko1q6x6xqfYI2lr1vXrmpSx0M9MyQj3ZC9/NRTT6n38py/d1beZ5j7mHxZscc7R0wLdSIIFzMgxPTbb78laUFseZhqL7/88ritZHHANShXCmpfSPhCv8akwJntd999p6QSmzARQ8pMtGES73K9h/+lj1JLIUpxueQSPe+MV5fk1tNri993/B1zN2XF9nlQXcLgZO+kHIGgsesqAeKiX6Od+rz3E3kWVBdXnoki4Td2XeMT6xTHZTg3pmY8/UTbkB7fGemGRJkrF4d/+kk2b9kS8otT4zV2ciVKlIhbGc7F4l27OTVqbrUwBAyB0x0BHFQ54sKCklmSkW5m6WlrpyFgCBgChsBJR8BI96R3gVXAEDAEDAFDILMgYKSbWXra2mkIGAKGgCFw0hEw0g3ZBUEqQyGzOWVfC1IZOlUqHk+lJlE1nSD1nqA2J1cxJyg/e24IGAKnPwJGuiH6OIzKUIhsTulXglSGTnblXSo1iarpuNR7XO1NVDHnZGNo5RsChsDJR8BIN6APglSGkMoqUKCAHP3tNw2qHx14gIAaBW+9Va++IFfnaZL6FRlGgcilJERkG+6icm2IoA0IMaBmRHLVxaUy5Nc+/n5Wtmx6L/WanDlVBzQ1dIT9sHGp1IRVvonN26Xe4xoWQYo5mVE55eRPZVYDQyBjIGCkG9BPLpUhrhEh+0eUH+7NQrjEBua+HdF3CGNI5CPuwvK8bLlyztJwnXcpEAUpCRES8eZ8+fSe69f79smZWbOqDGFQXfxUhlztIzIQuqLEDr7gwgvlrz//1BjCBIjwSylRIPLyDFKpSa6ajp96T5ifr19dMqNyShi87B1DwBAQMdINGAUulSEiuLCLbdCwoerbEmGKGKqEJnyiVi0N11f0vvv0wjsxRl2E5FXDpUAUpCQE6f6nQAENc0hIO4geYfUwdYkXe9nVPkiXc250UQk+QdxbonERMcgvpUSBKAzpupRv/Orkp94TZnLwI93MqJwSBi97xxAwBIx0A8eAS2Vo4YIFMmPGjEjYNoLwz58/X4YNHy7XX3edxuKVv/7SsJCEmSNcY1ByKRAFKQlBuj8fOaJSg9EpTF3ika6rfZBu9ssu01jDpA83bUoiqRfUzkSf+xFdkPKNX3l+6j1h6he06w6Th71jCBgCmQsB2+mG7O94KkPsbFG6IXYqCT1PlF+QnCMRig1t0kcrV9Yz1gcefDDUbtdPgShISQjS3b9vn3R/+eUTWhVUl3ik62ofpIs4gaf6A+l64uJ+kKZUgYh8/YjOpXyD+DmLme3btkV0dmPrGKvew/Og7/zqkhmVU0L+jOw1QyDTI2CkGzAEXCpDBL1nMq9Xv77qlaI9iorHO+vXqwPV/2TNKh9//LGSLgHxHyldWr7++uvAQeenQBSkJORHuq66uFSGXO1LhHRTokDkUqkJUr4hyH+N6tVVfq9DVFB1l3oPneT3XZBiTmZUTgkc1PaCIWAIKAJGugEDwaUyhJQYsm4oBnG2O3v2bNV/JSEph+g8pIYQApq7YVVM/BSIgpSLcOrat3+/9OzZM0mrXHVxqQy52temTRu55OKLpeXzjs8zMQAAIABJREFUz2tZH2zYoKbmtevWpclPy6VSE6R8w4KHc+0333wz0j9U0qXew3O/74IUczKjckqadLplagichggY6YbsVD+VIT7nighXdWJ1SlGF4cwQB6rDhw9rSSlV/SGPRJSL4tUlZNN92xf2+1P5PZd6T6L1zozKKYliZd8ZApkNASPdkD2eWipDpvoTEvAM/FpmVE7JwN1lVTcE0hUBI910hdsKMwQMAUPAEMjMCBjpZubet7YbAoaAIWAIpCsCRrrpCrcVdrogQPhLImx9c+CA5L7pJmdQEDzcCZH5008/afNvK1RItm7dKkcc0bs8nK644go599xzZf/+/RrZzEv58uaV3Xv2SI4cOeTI4cMagYyUN29e+fbbb/W/eClPnjzy3Xff+T73vjn77LM10Mq7773n7DK89glvik+DK+G5fvz4cX0F50LqgWc/iUhrmzdvlt9///2ELBCzIMLawYMHhRCoBHsh4ltapOT0qVd+auOZFu2yPE8tBIx0Q/ZHclWGmIxq1aypuS9YuFDDO57sxGT3xx9/nOxqRCbe1K5LeravRfPmcvPNN8u8+fOFa2WE/4yXuP+7csUKjU62ecsWueCCC2TF8uVSoWJF2b17d+ST+++/X2N4kwipOXbcOHW+q169upI046lLly6ydNky4UrSSy+9JEuXLBHibRN9rFv37vL999+rNz0BWuYvWHBCdbJkyaKRwyZOmiRTpkxxjgPq0rdPH3moeHHne6tXrZLHq1eXSy+9VLhGFp22bd8urVu3ln//618yduxY9XTfsGGDOhNOmzpVr9pd/I9/SPfu3RW/r776SmN5F7n7bs3m/Q0bpFy5cnL82DEZMXKkcCXuq717pWevXknKgYxZSBw7dixFYztsn3qFpAWeuXPnlltvuUVvPHz62WeRhUmKGubzcUrnqER/b37qXLfccosuGg8cOCCrV69O0p/81grkzy+//PqrrFy5Use6l1h4IkKCwyox4FM6DtIC6+g8jXRDIJyIyhATwe233y7169WTefPmydBhw0KUlHavPFSsmN5Rvbdo0bQrJGTOaVGXtMjTrznsvN5etEi6dO0qjz36qPZzbIhPSHbP3r1KGk0aN5au3brJRx99JLmuvVa6du2q//bSmjVrlDwhXuI2E8kMwiXPuwoXFna7XAUr/tBD2n+8x3U0CIyAI+wCv/jiC8GBix0lixkm7UZPP63veAlhiP79+imRervu6DYy2Tdr3lz/hIc8oU2Z+GPTrJkz9WoY5Dl40CBdDHAnvWqVKpErWbffdpveS69WrZp+Dg6tW7XSSRGnRBL3ndndUlfS8BEj1AKA9zdtZ/FA+9hFgx2TNdexeG/Tpk3y/vvv63dEThs5cqTMnDUr5Ag88bWwfeoJiJBDauLJHXL6D0dLrBS0n7b/9/775ccff0y4Xa4PUzJHJfJ7c6lzMU4IgYswTK5cuXQc1KtXT6tfoXx5nbtYpDIXM2YqP/qoWj0QXhk7ZoyG2mVBi8WkYaNGaYJXamVqpBuAZJDKkEv1h6yJl0z4x1jSjfcduyIiWJ1z9tnCKpqV/0158ujk41058ivPpfpTpEgRnbwfe+wxebFVK20xdYo2V/rBkDVrVp0kmYAJ7AFBeGbCRBSIguqS3u1L5IdE8BJIpG27djL0lVfkyaeeEq5ksfIn7CcRyog+xq6Fu9Pr3nlHCQqiuPGGGwTTLSRKuqdIEY3k9c477+jO2SPFbt26aZ7XXH21TjRbPvpI3x88eLD87//+r0yfNk3L4xljizvImKF79ewpixcv1khpTNxlSpeO7MK5580Vqc937Dih2TNnzpQFCxaoqZdUvlw5refUadNOeBeBj7vvukvKlCmjkdYg/I2bNskN//63xt8uX768MCn/+ddf0rRp08j3fEM7+E1lv/RS3f1Tz21bt8r+Awdk6dKl+gwL0d69exUPdtCQ8nvvvSffHTwYyYt/Q+Akdu+QLsSVaArbp8UefDBN8IRQZs6YIR9/8kkkgAvY7tixI2J29/stEgENpbArc+SQb7/7TnHx5gvwcKmPJXeO4v2g37BfH7jUud6aPVvD5Xbo2FHzf2XIEKn95JP6t+HDhml890qVK4t3R555bNGiRdKxY0dd9LJgadqkidSoUUN/j/zWSKei4peRbsCv1KUyFKT64zeg/b5jtYa5jp0LYgWcXRF0440ZM6Rfv346IWI+hPzY0XDeVbVaNTUvulR/Bg4YoAE8+O+DDz7QFiPMAKm7EmWMGztWV9yc26FW9HKPHrJw4UIlYj+FpUTrkp7tS1TxiHNOwnxCHiyMPtqyRfr26ydM2vQHP3ZELliZ054XX3xRFzt1nnpKJwYmSNSmvN0LSlQDBw6Uz7ZulVKlSkn9+vWlefPmuptFOKNw4cJqXmZXTYSwF158Ufu+YoUKms+X//u/smTJErn6mmu0/PuKFpUvd+3SM2SIadu2bXoWCiE+//zz0rZtW52YSYg97N2zR2a/9ZaqYbFz8BKTHosyzNnRCbnIPXv2RP7kmZdz5sypbYR0K1SooIFTqNeu3bvljttvl3w33yy/Hz+uYVJfHTVKy0KhinTV1VfLueecI/UbNEhCuts//1yuuPxy3el+8+23uqiYNGmSTJo4UTp36aJtI0FWmJ+ZhBNJyelTFp9phSdhVzGbPteypc4B0cn1W2xQv75aFMCDXSKL4ipVqsjPf/sA+KmPefnH2xi4fouJzideefHCp65ds0YtGBMmTNCF5PJly3SumTZtmkaGYxHH2KJenV96SRc+27dvl9enT1d/CqxDM954QxeKBCEi1j3pVFT8MtIN+JW6VIaCVH/8SNfvu9dee01Jlx+Qnt8tXSpZzjhDbsqdW81+rvKCVH+KFy8uHTt0kCJ/m/bCTE5Mnpi7qlStqpMyuyRW20wIKVEg8qtLerYvUcWjV155RYngp8OHZdSoUXL1VVdpDOozsmRR0rv++utl4KBBah5jgmDnOWDAALVgYMnY+9VXustjRY+ZjB0rpI1prFnTpjqhM5lgOv3Pf/4jK1auVELfum2bnls+99xzSsQsBjHPskPiTGvca68pKeHYg3mSd9klcTZGIoQohN/k750nkxNnwo2bNNHdROwEz7kz72/ZsuX/CCBLFrn/v/+Vdu3b62LAS4zX9e++q2TB7viHH36IPKMOnPfed999unCACB5+5BHp07u3LuQ8Ezc7enbLfqTLjheCvugf/9CFwzvr1smDxYolWbiMGDFClq9Y4TusWSCxaMwS88bRY8c0z7B96n2eFnhiIeB3TF0hUCKtzXrzTS3S9Vv0ZEUxkdPGMaNHy9NPP60WFpKf+piLdIPmtni/YRfGWEdcpEtb2TwQ1a506dJKrJDw8OHD9XiFxSkLZRL+MSw+ScyR+AdwHnz4yBHBwRBLD79B0qmo+GWkG8A+LpWhINUfP9L1+653nz5KuqXLlJGuXbqo6Q1N3LuLFNEdkKu8INWfREiXc8OChQpFzuWioUqJApFfXdK7fWEWHrHv4InMBA2ZELt5xPDhsnbtWiUoSBcyw6zbr39/JV3Mz0wMmJchsEGDB+tODTN9r969dZeGQAVnr9HmZSZQdoSQKAsdJiScr8gb0m389NNqXmaHjNkWMoPUBw0cqGZinPc8RzXqxRk0HtCvjR+vlgoInnw4G8OaEp0gyZc6dVIyZpHQp08fKVG8uLRq1UrLwSKDaZnzbOrMDvODjRv17I28KJszYSY8ZCajCZo2QLqYj3fs3KmPUMFiYo0lXcyGmAch/fHjxwsLYCZbzpFLlCwZyXf8a68JpOsKQUo+LDJiE2ROnmH7lO/TAk+vXiwG773nHuE3gsmYuOIsvFy/RXBmcYwpnoUcu2J2y4w7j3TjqY+5SDdobov3G3ZhjNa2i3QfeOAB6fHyy1p/xjvjiD4dM3asOvTlL1BAHe6uy5VLibl5ixayatUqWbRwof4mKLtipUoyccIEmTNnzkn3oXHNLUa6IWfeeCpDQao/Huly3oUJ0Ut+37HbgXRxQIkmXUy5eHq6ygsSIOBHgoMKBB42cUaC003ZsmVP+CQlCkR+dUnP9qVE8ejBBx6QGjVrKgnNmztXyleooGenTMYLFy1SUilZqpR6VEablyEWvIw5650wfrzUeuIJ3Qmz64XgIDBInMlk2vTp8uwzz+hZOrvZG2+8UWrWqqU7Qr7HRIeHMTtLBDZQkSr9yCNJ+gmHkvXr1+vfqBtxtvGGZoLi35AcJujYNHnSJP07beF4Ac9jCK93795qiiZRFjtUTH8Qt2deZrfJuSe7cM6pWWTEI11M3J74B+fWXn2iz3TZOZ1/wQXyxc6dapZGxatXr16q49zimWci+fbu1UvNiSxqXEnP3GMSkztnxmH71FugpDaesfViAbVs2TI1mQ4eMkTPK/1+i6iSYfbH5E7CVMuZp3djwqU+ltw5yqun32/YhbGLdHnGooHFKQtMdrbEsWcBidUF60qfvn01C0zPnN/3799fF7CcWXNcxuKP+ZPNCztn0qmo+GWkG8BALpWhINUfsmYC5iwVpxt2GpjU/L7jrMxFuq7ygkiXyYxzOszU/EAxB8bucGKh8NRymOiYbCERTJeYTlOiQORXl/RsX0oUj7wJmnNuVt5PN24cOdPlB8+PH0EIEpKDOHvgdfvnH38o6ZIg0c8//1xX6pzhYlFg53j2OefIu+vX6y4HhykIlYno0MGDaqblXAvy5GoF70DI7NZwpuKqBedtkCWTFTvd6D6GmCFyzHecKRMrvFXr1vJZlIcyu1VM2Cz8eIfdBeXhC1C3Xr0TxkzsmS5E/+asWWryLl6iROQ+MOd0C+bPVwsBpvHLr7hCd8wkrg1hTuVbxgbjgMUEROqd6eqZ7cKFajIHk4l/n9nxPWea/C2IdF0/9bB96vlEkFdq48muFp8Afl94knfu3FmJBgJx/RaxOrGwB7e6detGLAJhSTc5cxRjnpTIfOJS58Krn2Maxjm+BjhTYc1gjNL+Y0eP6kIL5zL8WvBx4RwXVTf6nwVs4Tvv1H9jKfT8VU5FxS8j3QDSdakMBan+kDWTIytxdiyoELEi8/sOh4A1q1cLphiuleCI4nksNmzY0Pc7zu2CVH8wV2KmwaRInpj9mPSDEjsqdvmQFA4tkDaezylRIPKriwvPtGpfUPvjPfcmaM+Dlsm+ebNmihGki/mLc1kWKKNffVXvWuJ9yQ7WI10mbMgUEzImW7R7mWAwO7MLRxUJR5LHq1WTnNdeq/dy2bFwNgZ5XXf99XodjXM7dowQNAs6SJUdJiSE2Y2/kzeOWVw5+v6HH6Rd27bq4ASm/A1vayYwxirngZjGWZRRNnVkwfXIww8ruXO/F+cqnKzYjbGrwqmFnW7dOnVkzdq1ugD57ehR2fD++7pbgfzZPZ+ZLZueqbJrxbx89G9HQfwWvLpiTn+mRQs5eOiQ3scEi19+/lkXF+yi+B1gHl+9Zo3u4sEc0hk3blzEeSYt+5TfZFrhyW+eBQ646o517Vo1E3vBQPx+i2wMsDiAD4sSfps4zC3527zspz7m4ZScOcrzEUhkPnGpcxUrVkznSawbLPbwHfDKuuOOO3SRj4WG9N7776sCGGOG3xHjlzu8mKYxSY969dXIEDgVFb+MdEP+Ql0qQ4mo/lBsen8X29SwikdMbDhr8GOIjQbkp7AUEta4ryWKS0rKTM63HumyGMFblHur7Chf6txZF1ZewqmFRRu7FVby/7z00oj3OMSJiZIdKWe68RJXxViI4GgF2WHOZVLyrnoNGzpUzdC//fqrTkKxCeJf9Pbb0qNHD1m+fLmSFUQVHZQEj2nM5BDdzfnzS44rrlATNtd5cOLBm5QzVZxYmNw5auDMlvNCnG24msIikfNr9KQx1ULmXEvCdM6ujf+PtzVXQCpVrCgPP/ywTqCMK97nf0ncs506dao6p3E/mHua7P5pPzuf6MS93aAAH2nRpxz1pAWeLKhIETWwI0fUMSg2+f0WOZriWbQHenLa7/duev4WIVDIHAe8WCscC5F/XnKJHP/99yTOel69saQwN3nWE+/vp6Lil5FuyJGZWipDIYtLl9dM8SgxmDGTMTl61348x4/UjrAVVDuctsKERKR+8UIsevnHPmeC42/xIvtA+jxnUuS8jAUA7WbCx3uab7yJj/d4n+dh6xrU5rR6npw+TQs803vspBWOp1q+p6Lil5HuqTZKrD6GgCFgCBgCpy0CRrqnbddawwwBQ8AQMARONQSMdE+1HrH6GAKGgCFgCJy2CBjphuza5KoMhcw21V/DoYXL9QOi7gVTCF6gBBv46ccf1fMzOkB/eiqbpHqDLUNDwBAwBDIQAka6ITorEZWhENmmySu4yONlSvAGL3mRkbjCghcqd9h4TozW9FY2SZNGW6aGgCFgCGQQBIx0AzoqSGXIT2mHbAmAUPDWW9XTE8kq72J5Wo0NgiVkO/NM9SglLJ+XuEzOPVECExDHmaDxz7/wgsYoDVI2ORVVOtIKP8vXEDAEDIG0RsBINwBhl8qQS2mHO5qEMkMoABLkniuqMK6UqPKNl+fQoUP1PiiJgAteIrzirFmzNJwciXB6hFUjKLhL2YR3T0WVjrT+UVj+hoAhYAikFQJGugHIulSGXEo7RBQiwAAyb9xb5E5jrNB5bNGJKt9E5/Poo4/Kk7VrR0iXe5IfbNigUYa80HkEc2AnTAQcl7IJ+Z6KKh1p9WOwfA0BQ8AQSGsEjHQDEHapDLmUdlBOIbQeouYEsyeOLOET0zrFki7lvffuu/LK0KGCdCAJkzIhJ7t266b/9lM2Seu6Wv6GgCFgCGQ2BIx0Q/Z4PJUhl9IO2RLWDB3VRytX1kDdDzz4oHO3mxLlG68Z8UiXkIPE/SWWL4uIlStWyMRJk1SrMjrFKpvw7FRU6QjZZfaaIWAIGAKnHAJGugFd4lIZcint4ED1P1mzarB7SJfYuCi3eHJm8YpNifINZEoYPmLcPv744yq3Rug/TNvt2rWTB+6/Xxo9/bTcftttGhwdmTji17qUTajjqajSccr9iqxChoAhYAiERMBINwAol8qQS2mnatWqKjwNGRLUfdLkydL3bz3IkH2TrNdQJ0GGLTqhIoSaEOZjZP1w7iLGKyovCJOTgpRNTkWVjmQBYy8bAoaAIXAKIWCkG7IzXCpDfko7EcWQn39WNZaTnbhvjDyfp1Lj1celbHIqqnScbBytfEPAEDAEEkXASDckcqejylCYpp+KKh1h6m3vGAKGgCFwKiJgpHsq9orVyRAwBAwBQ+C0RMBI97TsVmuUIWAIGAKGwKmIgJHuqdgrVidDwBAwBAyB0xIBI92Q3ZpRVIZCNifyWrly5eT8885T7+pEkp+qkV9eYcrD4xsv67ROXIfCiSw6bdu2TQUhrrzySrn11ls1fOf+/ftlxYoVKhDhpQsuuECvU12WPbvs2LlT1q9fn9bVtfwNAUPgNEDASDdEJ2YklaEQzUnySvt27eTiSy6RZ599Nrmf6vvxVI1cGQWV91CxYtKhQwe5t2jRhOqTnI8mTZwol2bPrp8QBITFR6eXXpI333xTevfuLYUKFpRD338vRBfbum2b1KpVS+8+cwVrzOjRSsh79+6Vq6++Wu4uUiQ5Rdu7hoAhkEkRMNIN6PgglSGXklDWrFkFr+errrpKg2KsWbMmslvKly+fXt+56MILNVrVJ598Ih9u3qy1YZdV+M475S8RWb16tXz33XeRWvo9Q+3orGzZhAXCNTlzyrp162TXrl2BwxoShDxmzJgR9ztXXfxUjSj0lltukTx58shHW7bIRf/4h2zevFmOHDkirvKKFCkidxUuLI899pi82KqV1p3QmbFXnAIblcALlNnyueek2EMPyU8//SQXXXSR/i8KUSVLlpQeL78s1WvU0H567tlnpUTJklK9enVBLpGgJNF1NGWmBDrAPjEEMgkCRroBHe1SGXIpCRFdatzYsSoej6Qf7xKGceHChVrioEGD5OZ8+eSss86Sr/ftkzOzZpXyFSoI5lqk+CBp8jj//POlarVq8s033zifQWYVK1aUffv2yQUXXih//fmnlHr44UCRBdd3rrrQBj9Vo9KlS0uXzp213bQfUqpTt6588MEHSrp+9Rw4YIBce+21+h/vkjp26qTmXr+UUmUmL9+pU6fK7l275IUXX4wURVhMFiTVqlWT2k88IcVLlJCDBw/KlMmT5csvv5Tde/ZoH7399tuydevWyHemzJRJZk9rpiGQAAJGugGguVSGXEpCFSpUkLZt2kiVqlVV3o+dEztfJm2PdP9ToIBGjIJQmdwPHTokr40bp7thdnpM6NOnTZPpr78uQ4YMcT6DzDh3LlO2rGrnzp0zR56qU0eFDVzJ9Z2rLl6e8WI9vz59ura5VevWUqxYMenTu3cS0nXVs3jx4tKxQwcpcs89oYZzaigz5c2bVyZPmiSNGzeWtevWRcrl3/Xq1tV/jx8/XpWaSEuXLBF2s7yLpSJ37twCDl/+bVkwZaZQXWcvGQKZEgEj3YBud6kMuZSECAFZsFAh3SXFS+x0fz5yRFq3aZPk8bq1a+Xss8/W0JFemj9/vnTo2FFczyDP7JddJs2aNdPPPty06QQSiVcP13eu8lyku/6dd6R3nz5qsr700ktlyeLFSUjXVc/kkm5q/GrbtW2rZ8ilSpVKgjsLpRw5cqj8YeVKlYQF2Gdbt8qihQvlxx9/lMeqVFFLBSQ8ZswYGTN2bGpUx/IwBAyB0xgBI92QnRtPZYhP/ZSEmjZpIg8VLy5ly5b1Jd39+/ZJ95dfTvIcwXlkAMfGmcBdz2IdlCDdps2a6ZmwK7m+c5XnIt3ly5bJ2HHjdHdIfOo5b72VhHSjHbdi6wnpEnoyrGNSSpWZ8F5evHixTJs6VQYPGRIXKszMG95/X52riFs9efJk9Wj2nM9o3+IlS/TIgGTKTCF/VPaaIZAJETDSDeh0l8qQS0nIU+fp1auXzH7rLSlYsKA63Xhnf0zQ8Ui3Z48egrmzeYsWanYucvfdsmfvXj0fdT1LC9J1ledSNerXr5/8+1//UhM5ZleUj6LPdF2ki+Ma4gzNmjdXp6Xvv/9enZn8UkqUmciTK0yQfLny5WX37t2RYlhkbdiwQfugTOnS0qRJE2nxzDN6dQhrAjvfWk88IVdccYUMfeUVtUTMnTtXvzdlpkw4k1qTDYGQCBjpBgDlUhkKUhJ6ulEjYfKGGPBUhkg8IfsB/fvLvv37pWfPnklqwL1P/sYdUdLPP/+sZ6PsWF3P2rRpI5dcfLG0fP55/e6DDRuUHKLPKOM11fWdqzyXqhFXaPr26SP/+te/BKUjvJiffOop2bRpkwTVE3Mt3xYuXFjPwDnzJo+0SiOGD5ds2bJp/aITu9m8efLonzD1z5w1S7p166YLADzEB+MId/PN+nzV6tW66+U6EcmUmdKqtyxfQyDjI2CkG7IP/VSGgpSEIFycpDgD/O2330KWJuqgk+2ss3Sn503m3seuZ7EFQHyXX3553HI//PDDUNdxklMeBYEJJlmu0dxxxx0CsZUsVUpNshkpcaZLW3744Ye4fcfzLFmy6PPoZMpMGamXra6GQPoiYKQbEu+MqjKEB3WJEiXitrJ+gwZJrrqEhCLwtQfuv193hXgwQ/rLly+XNm3bBn53urxgykynS09aOwyB1EfASDf1Mc30OWKuLVCggHouc2+YwBiWDAFDwBAwBESMdG0UGAKGgCFgCBgC6YSAkW46AW3FGAKGgCFgCBgCRrohx4BLZSi5SjthisTjl2sp3PmcPGWKbNmyJfJZWpSXEmUfvIwJ+zh8xIhQ8Z7DtD813yHABVe28AQnJvWxY8dSM3vLyxAwBAyB0AgY6YaAKkhlKLlKOyGKlLdmz9aA+8uWLZNly5drrF8vpXZ5KVX2IYIWUai8u7hh2pde7yAEMXbMGPn1118FOT7Olxs2apRexVs5hoAhYAgkQcBIN2BABKkMuZR2XApEfsVCEkRx4q7qpEmTZOOmTfLxxx9rYA2SqzyXcpFfXVKi7IOSEHdZt23fLqNffTVCuuzOqeeVOXLIt999p7vLw4cP6zWiokWLans85STaS1SvoBjRif5uO3bsKLfffrvgUUyUsBo1akTuDJOnKQIliqx9ZwgYAokgYKQbgJpLZYhP/ZR2XApEriKRi7v/v/+V2267Ta/ccE935MiR8t777+tnfuXxzE+5yFWXRJR9KKtMmTLS+aWXNGoU14K4z+rtdBvUr68xpxGEz5Urlwo4VKlSRX759VeZN2+eECaS2MykqVOmaDvbtmvnC0tKlIQQX4DQx0+YIDPeeEPjWvft21dDbZJMESiRacO+MQQMgUQRMNINQM6lMuR9Gk9px6VAFKazNm3cqLGT0eCNTfHK80g3nnJRUF0SERmAzHbs2KGCDR5xeaRLMBC0c4kuBeEj+P7000/LunfeEQiZSF7EpSZuMvnUrVdPQy76pZQoCS1dulTjKrMrP3zkiOTLm1djLQ/8O06yKQKFGY32jiFgCKQWAka6AUi6VIZcpOtSIArTeYmSbjzloqC6JEK6nOEOGDBApk6bphG3EEfwSBciIygH93SJpkVUrudathQIkOhY8+fNk+dfeEFuveUW4V3kCNMqoQiEAxVm5IqVKsnECRNkzpw5MnTYsLQq0vI1BAwBQ8AXASPdkIPDT2WIz/12nn4KRGGKTJR044koUJ6rLslV9iG/FcuXy6hRo2TS5Mly5ZVXKpF6pIvqDmbnzl26aFPXrlmj4geIvZOIW8z57k033aSe2aNHj3ZCkhIloUkTJwpn3R07dZJFixbJ6lWr1LQ9ffp0LdMUgcKMRnvHEDAEUgsBI90AJF0qQy6lHZcCUZjOi0e6rvLI00+5KKguyVX2oSyUdfDqRn2ndu3aqjXrke7CBQvUAQyVorp16+qzF158MUK6999/v/Tv109iVDAhAAAgAElEQVT++OMPjcnsOYn54ZISJaFGjRqpSRtFoMJ33in8u3SZMvLVV19pcaYIFGY02juGgCGQWggY6QYg6VIZcintBCkQBXUgKkFNmzbVc1AvucrjHT/loqC6JKLskzt3biVezLb7DxxQBaSn6tQRRBRYqLRs2VJYJHDuizd227ZtZcnSpdoU/s5Omes7TZo2DYIiRc/Z4Q8ZMkQK5M+vpu4RI0bIqFdfjeRpikApgtc+NgQMgWQiYKQbEjA/lSHX5/EUiFJD9SdklZO8FqSGFJtnmHpiIoZ0Dx48qPJ30Yk7sexQDx06dEJ1uSY0fdo0PdflnDc9ErtyVJ64rxudTBEoPdC3MgwBQ8BDwEg35FhILZWhk6H6E7KJSV5Lq3q2aNFCqj/+uGzfvl1NvpiYT2YyRaCTib6VbQhkPgSMdDNfn5/UFnOFCJMvATKOHj16UutihRsChoAhkN4IGOmmN+JWniFgCBgChkCmRcBIN9N2vTXcEDAEDAFDIL0RMNINibhLZShkFhn2tSBVIz+VoXjKReXKlZPzzztP7/emZ8qSJYvGfeZ60qeffpqk6FtvvVX/vWnTphOq5PouPetvZRkChsDpgYCRboh+DFIZCpFFhn4lSNUonsqQn3JR+3bt5OJLLpFnn302XTGpWLGiEEeba0tcZyIh99e6VSsNVblnz564kbHifZeuFbfCDAFD4LRCwEg3oDuDVIZcSkLsAPF6vuqqq+Trr7/WOMoE/ye5FIGI8EQgh79EZPXq1RFFHr7ze8Y1nLOyZdOAFdfkzKnKPrt27XK2DrLJli2bRo/yEteA7rvvPo2FjDKQS9XIT2XIpVwE6RI2csaMGaHrmdJfHNeaZs2aJb8fP65BOzzSbdCggeS69lrJcsYZGpM5Nhyl33fUx9SJUtor9r0hkDkRMNIN6HeXypBLvYc7quPGjtWg/pgzefflHj1k4cKFWqKfIhCm3CGDBytJk8f5558vVatVk2+++UZczyAzdmX79u2TCy68UP76808p9fDDGnfYLxF8g4hMjz/+eOQV6okIQbny5ZW0/VSNXCpDLuWiROqZEpUhGtarZ09hAcR/x44fj5Cu1+inGzWSUqVKnUC6ru9MnShzTpjWakMgpQgY6QYg6FIZcqn3VKhQQYP+V6laVaXrLrroIp30CSThkW48RaDXxo3T3TCxiiFdgkhMf/11jarkegaZce7Mbi179uwyd84cjRDl0qnlfcIxFrnnHiXejz76SHLmzClNGjeWBx58MIJMvNjSLpUhPvQTUUiknilRGeIcF/KsULGimpLDkm7Qd6ZOlNKpx743BDInAka6Af3uUhlyqfc837KlFCxUSHVl4yV2uvEUgdatXauar9ERnubPny8dOnYU1zPILPtll0mzZs20uA83bZLGjRvL2nXrfFtI1KiVK1ZIi2eeUfJdvny5/HT4sPzjoovk2eeec5KuS2UoiHSTW89Ef5qYzt+aPVtWrlwpI0eNku7dusnx33+XVq1aqfSg30437HeJ1su+MwQMgcyLgJFuyL73UxnyU+9p2qSJasaW9ZGt8xMnQCIPgfWxY8eeUDPXs1gHJUgXPV7OhF3p9ddfl99+/VXVdpDiYyc+c+bMiMg738bb6bpUhjzSJcTi3UWKJCk+kXomqjJEe5YsXnxC89977z2p36CBL+mG+c7UiUL+cOw1Q8AQSIKAkW7AgHCpDLnUezz1ml69esnst95ST1muq2zdulVL9CNdlHny5s0rzVu00HPcInffLXv27tVzYdezRMiMemACh1R79e4tXOfJfeONUqNmTY0Y5VI1cqkMka+fclEi9UyJyhCOZVz7Ib3cvXvEdM9ZNztazrArV64s9xQpojv+/fv368LD9R15mTqRzaSGgCGQCAJGugGouVSGgtR7cNBhhwxpEPKwWfPm8u6772qJfopAqPX07NlTvLujkEOr1q11x+p61qZNG7nk4oul5fPPa/6oFGFqdpmXee/hhx9Ws2vZcuV0V16jenW55957VZHHpWrkUhkiXz/lokTrmcjgjv0GEzrn5cgMklhgTJs2LclrmKFxHotOsd/xzNSJUqNHLA9DIPMhYKQbss/9VIaC1HsgXK7I/Pjjj6pyEzZddOGFku2ss+T7779XAoxOrmex+YdRCwpbp9j3XCpDieaZUb4zdaKM0lNWT0Pg1ELASDdkf6SWylDI4lLttbRSC0q1CmbQjEydKIN2nFXbEDjJCBjpnuQOsOINAUPAEDAEMg8CRrqZp6+tpYaAIWAIGAInGQEj3ZPcAVa8IWAIGAKGQOZBwEg3ZF+nlcqQn0JPvGrh0VyrZk19tGDhQnn77bdD1j5lr8VTGSLWM9GrSHhYf/bZZ/LTTz/pv0+WkpCfWlCOHDn0yhb1JCb1sWPHAgEh/CbXnoiGtX/fPlmxcuUJDm2BmdgLhoAhYAjEIGCkG2JIpKXKUDyFHr8qIXZw++23S/169WTevHkydNiwELVP+SvxVIZw0CLUJXePr7jiCvn5l1+kSZMm8uGHH0p6Kwm51IJYHIwdM0Z+/fVXIQLX5s2bpWGjRoGgjBk9WvLkyaN3pVlcECKTsJqxnuSBGdkLhoAhYAhEIWCkGzAc/FSGmIyJz3vO2Wdr8IWvvvpKbsqTRwjZiDoPiQm/QIECcvS332TlqlVJQg/6KfTwnUtliOfEYOa+b3qQrp/KEKRLEI/qNWpofceMGSOffPyxPNeypZKuS0nID5cgpSQ/XFxqQR07dtSFCt7GRAmrUaOGPPnUU3G1c6OHAv2+ZcsW7bPKlSpJu3btpGatWkq+JFMZsnnUEDAEEkHASDcANT+VIcyPq1et0uhFEAx3cP/66y95Y8YM6devn0r6EQDjyy+/1OdM3o9VqaLvuRR6XEpCXlWTQ7opVejxUxmKJl3qNfrVV7V6derWVdL1Uzxy4eL6Lgwu8dSCEGZA9GH8hAky4403NK513759k4S5DPrhUGeUnxCv2LZtm75uKkNBqNlzQ8AQiIeAkW7AuPBTGcJUCekiaNClSxdZunSp6rLelDu3Rp4aNXKkknCDhg1VT3f2m29Kx06dZO7cuSqdt2PHDmndpk1k8oasPvjgA6eSUCKkmxKFHq+8eLGXIV12+mPHjZNCBQtKsWLFZBTRnIYNU9L1Uzxy4eL6zqWw5NUzHunSL9OmThUsC4ePHFHd3MWLF8vAQYNCzQiEipw0caKap5+oXVv7lGQqQ6Hgs5cMAUMgBgEj3YAh4acytG//fiXd0mXKSNcuXWTxkiVyZtasGuC/fv36snDBAhVqH/X3DnDOW2+p6XnY8OHiUuhxKQklQrqpMeL9SJcdOzs/dvEsGBBqIMyiS/HIhYvruzC4xCPdRQsXqgMV5uCKlSrJxAkTZM6cOaFM80Tc6t2rl4bkrPXEE7J3797UgNPyMAQMgUyMgJFuyM6PVRka8sorSrqPlC6dhHQxRdarX193thAxOrikxW+/LVOmTtWzT5dCj0tJKJp0N27aJAMHDgysfaIKPdEZ+5Gud6YbWwmXqIELF9d3YXCJR7rsUvPly6dWhkWLFmmf9e7TR6ZPn67VdqkFderUSXfwOK59+tlnSZppKkOBQ89eMAQMgTgIGOkGDAs/laFxr73mJF0UbfLnz68EzE4JUYFGjRrJO+vXi0uhx6Uk5FW1T+/ecu2110rbdu1UFce7qhOvKSlR6HGpDP0/9s4DPIpq/f+v/hCUSxEuRVSKeumCEEWQUKR3QiD0UKSEHgLSCaGGXgKELkVaKNJ7Cy0EUSAgHbFSwkVEkIBggf/zfS+z/81m58zsbhJ2s+95Hp97yZxz5sz3zM53zplz3o/tN13rc6vMU6WLqpxKFxUtCJp3CQrikWq5smW5DzA7gYVvSHq0oJCQEGrfrh1NmzaNTpw8yXnxfV7j8AplSJ6nooAo4IwCYroGqulRhp48fUoxhw9Tnbp1acyYMbR3717CnluMdLt27Up58+blxTcwR3wH3LRpE40YOZLPpiL0qEhCWlMxwsS0J38r3rSJR3EpkVSUIYDgixUtymZmm1QkIZUuqnIqXVS0IPCOMdtQskQJ3u4zb948y5Q/2l2vbl0KDw/nKedhYWGWS8FIuFDBgokurV+/frR33z7+m1CGUuKOkzpFgbSvgJiuyT7WowwZFce3RGD9tBGSlt+I0OMIScioDe54XE8Xo7Y6qwv2WmPlOBZEWaewsDBq5OdHwDRe/vZbo9NbjgtlyLRUklEUEAWsFBDTNXk7eCplyOTleW02fLd9+PAhTZw40SENhDLkkFySWRQQBZ4pIKYrt4IoIAqIAqKAKJBKCojpppLQchpRQBQQBUQBUUBMV+4BUUAUEAVEAVEglRQQ0zUpdEpRhkyePlE2e9Qf6wyOkIucOf/zKPO8yEWOXquZdtrrPzPlHG2L5BcFRAH3U0BM10SfpCRlyMTpk2SxR/2xzuQIuciZ8z+PMqlNLnL2Gs20017/mSnnbJuknCggCriPAmK6Bn2hRxlCUApEJQKF5/U8eeiX27eZ1aoRhgoVKkQZMmRgAg/gCIcOHWIMHpLqmNGtoUf9QTkVucioXmeOa/uSsV/4xo0bFBMTw2EgkeyRhLBNyojMpNcOFbnonXfeofQvvUQXLl7k4hUrVKAzZ8/S3bt3lVqryhnpgT70KV2a92DjXOfPn+ciRoQlvf5z9vr0tNbaLzQko56U46JA6iogpmugtx5liGEGQUEMPED84QIFCrDhNG/enNmyo0aNooYNGnC8XkR2QmSoJgEBdO/ePeUxo+7Xo/6oyEV6dbpCIML1LFm8mBBmEoZTsGBBGjd+PO3cuVOXsIQyKjKT6tpVBCJVJCtVP6jKqdqCa10VFUXfffcdbzcCRaqhn5/FdPUIS8ig13/OXp+K2oTzCQ3J6Bclx0WB1FVATNdAbz3KEIppyD6MaPEgBvi8e/fuFHv0KBsrRlx169UjhClEoP8ZM2dSVFSU8piZ7rcXC1lFLtKr0xUCEQD2CAUJ3B3MJ2vWrByRC6hDPZLQwYMHlWQmI9PVIxcZma5ePzhruu3atqWePXtSpcqVOdgGZjwAVdBGunrt1K7PXv+pCEuqdqqoTTif0JDM/KIkjyiQegqI6RporUcZQvQiPNBgPDly5OAQgxjJAeIOnBxMN3u2bNSzVy8+A8w27uRJmjhpkvKYma6399BWkYvM1Olonv79+pHP++/zSN826ZGElq9YoSQzGZluzly5KDg4mLOdioujHj160JHYWJ7SzZY9O/Xt29dyrFdwMB0+fFiptbOm+/ZbbzGfl54+pVOnTjFd6dixYxbT1Wunkek6c30qapOjfSr5RQFRIOUVENM1qbEtZQhTqcD1nTt3jkaNHs21HImJoYGDBtHu3bv5YY9vvZ06d+Zja1av5hFwRESE8piZ5tgzXRW5SK9OVwhEvXr2pBo1a1LDhg2TVK9HElq7dq0SEoGKPvjgAwZFXL50iQ1VSyqDHDx4MOV57TXmGL/yyit0NDaWrE1Xrx9U5VRtwTHEdMb36aYBAVSkSBGqWq0aj3bNGLneSFfvxUHVThW1Ce0UGpKZX5TkEQVSTwExXQOt9ShDMyMjecoYiD0QcDp16kSYih4wcKDFdOvUrk2fdOjARjBv7lyG1gMvB0PWO6Zqjor6oyIX6dXpCoFIo+wgfOKmzZvJx8eHF4pdvHiR9EhCZ8+dMzRdQAUCW7emzVu2EOIimzFdTOn7N2pE3Xv04O/JvYODE5muntaqcjivXluwgOr/0qWjs2fPsun26dOHEY9YTKYyXVX/qcqp2qmiNuEahIaUeg9TOZMoYEYBMV0DlfQoQ/cTEgiGjAczHqZXrlxhstDQoUOZRANj9S1fnrBYCccx1RnSpw/9888/ymOq5qioPypykZkbwZk84NdiBgDmDagDRpqYZtUjCWHUpSIzoQ0wMHwz3bhxo4XKhL+rCEQYsWNRF74r4/syFrVhGhojZVU/qMqp2gI4AqbX0a9PnjyhFStX0pQpU1hCVTtV/efs9amoTWiP0JCcubOljCiQcgqI6ZrUVo8ylDlzZjadO3fuJKoJD/uXM2Rg48BxrFrWkt4xbGHJnTu33Rbh2yFWyqqSEbnI5KU6lA3XhgVluD5QfKyTsyQhhxrwLDMWq2HK9/bt26b7ARn1yhm1AbMXMHlMKWvbxIzKuHLcqJ16WgsNyRXVpawokPwKiOma1NRRypBmrJhutk16x7Aoq1atWnZbFNSlC0/dSnJMAVU/OFaTZ+YWGpJn9pu0Ou0qIKabQn2LUStGnt/aYbSqjqVQc7y2WtHaa7teLlwUcEsFxHTdslukUaKAKCAKiAJpUQEx3bTYq3JNooAoIAqIAm6pgJiuyW6xRxkqXbo0tW3ThmvYsXMnbxWyTfaIMtjeAihB1KpVJs+ePNn06ERYxVumTBn6/d49OhwTY4muhLNiVXTpUqV4le75Cxd4m4wkUUAUEAVEAecUENM1oZseZQgwA5hVUOfOtG3bNpo9Z06S2uwRZYYPH06ZM2Wifv37mzh78mWx1xYYMfb4Yo8ttjddv36dAtu04TjSWISDxV04hlW6MOePq1RJtBI7+VonNYkCooAokPYVENM16GMVZUgr+vmSJbw/1dZ09YgyMN1sr75K23fs4G0uIBDdunUrRe82vbZEzpxJOXPmpFatW1ORwoVpxYoV1H/AANqzZw+tX7eOENBCC1KByEvYj4yQl0hCsEnRLpPKRQFRIA0qIKZr0KkqypCR6eoRZWC6mGLGqPKFF17gqeaApk2T7PW1bporRCDUo9eW6H37aMOGDYQIW0h7du+mrVu30vQZMwghBn/77TeOJw2QgW0Sgk0afCLIJYkCokCKKiCmayCvijJkZLo4bi/OLky3apUqVKduXY5qhHCS8+fPp8+XLtVtjStEIK1S27bA8E8cP05Tp02j5cuXc7YN69fTiZMnacyYMdSoUSMOa4h8wBeuWbOGNmzcaGmjEGxS9LcplYsCokAaVEBM16BTVZQhV0w3d65cHCsYafmyZXThwgUKHzs2RW8xey8AXx07RrNmz6bPP/+cz40p5ZMw3fBw/jfMHmi8mjVrEqaoQ0JC6MDBgynaTqlcFBAFRIG0qoCYrsmetUcZsjZdgA+mT5+epDa9kW7+fPmoQ8eOnD9q5Uo6ceIETX4Wv9dek1whAumNdPH3Hdu38zdlUJPwgnHwwAECgm/u3LmJmoFAH9HR0bTuiy8sU9FCsDF580g2UUAUEAWeKSCma3ArqChDWtHJkyZR/vz5aWhoKN28eZN+//13NrCMGTNSY39/atWqFX+zxQIkQM8xvdygfn02XcQuBog8dNgw2r59u25rXCECqdoSGhrKU93dunenMh98wACHNm3b0pkzZ3hUGxcXx+EnsW0IIRXxYoBpZiQh2MhzRBQQBUQBxxQQ0zXQS0UZ0ooWK1aMJk2cSG+88QZt2rSJho8YQSqiDL6TVqxUiSH36dKlo5iYGCYQaauCHetC49yqtmD6eFZkJBUsWJAJSNg7PHnyZK4U33VRFqNcpCNHjvCiKg1sIAQbY+0lhyggCogC1gqI6Zq8H/QoQyaL282GkbAtgciV+lwpi73IwPPZkowsNJ2EBALO0DoJwcYVxaWsKCAKeKMCYrome91RypDJaj06mxBsPLr7pPGigCjwHBQQ030OosspRQFRQBQQBbxTATFd7+x3uWpRQBQQBUSB56CAmO5zEF1OKQqIAqKAKOCdCojpmux3e5Qhk0U9PpsencidLixz5sy8hSlXzpx05bvv6MsvvzRsHoAVIEVlz56dt3odOHCAQQ9acqZOrSzqRcKWK0migCggCmgKiOmauBf0KEMmiqaJLPboRO50Ydj2tGjhQjbPa9eu0ZtvvknlfX0Nmzhp0iR638eH7vz2G7391lt08dIlatu2LW/dcrZOHx8fGjxoEG/Bunr1KjVo2NCwHZJBFBAFvEcBMV2DvlZRhhCRCaERX8+Th365fZtiY2Pp/v37XGOhQoUoQ4YMhNFUpkyZOOoTEHlGx/Sag72ylStVolOnTzOEAAn7gxEX+dy5c/xvnKtc2bL0lIgOHz5Mt2/ftlRXvHhx3hKUNUsWAi0IZVCX1h6f0qXp6dOndObsWTp//rylnB6dCBn+85//UMmSJenxo0d08NAhSni2pQh/z5A+PeFlJW++fKzLTz/9lGK/qk/79qVatWtT69atWWNsxbLd+mTv5FmzZuVAJrju2rVr0/hx46h1YCBr42ydXbp0oQL589MLL75IxYsVS2K6QmZKsdtAKhYFPEIBMV2DblJRhroEBVHLli0ZBlCgQAGemmzevDk9ePiQozc1bNCAR16ICIX9uE0CAphFqzqm1xzUsXv3blq9ejXDEZC2bd1K+6KjaerUqYQpYGD6bty4weeC0bdo2dKCDJwxYwa9W7w4vwjciI+nl9Klo0b+/jwiWxUVRd999x0bFUaLDf38LM3QoxNhC1XEtGn0448/chkYbrPmzTlwBoJ/NG7cmOLj4ylzliz09MkThjuAyauXXKEoIYwm2vHz1at87dAJUbTMJLzMoP3ox/bt2lHNWrWYqORKnThv927dqE6dOklMV8hMZnpF8ogCaVcBMV2DvlVRhjSzgZHBvDDF2b17d4o9epSNFaCAuvXqUfr06ZkkNGPmTIqKilIeUzVn4IABPLJu3KQJlShRgpYtXcrGCoMB0xemP3DQIDaeNatX05q1aynyGbIPpvteyZLUtFkzNmK0/c6dO9SubVvq2bMnVapcmUNUYvRua4724kcjdCVGiF26dv1fJK6NGzkSF7CAHHGrYkU2HLB6t27ZwiEvAVLQS65QlPbt3cts3yOxsTySL1y4MNOdfjQxuu7Rowd17tSJm7V06VImLiG5UqfKdIXMlHYfpnJlooAZBcR0DVRSUYbwAB06ZAjlyJGDvwPC7BAmcd++fWysCPPYs1cvPgPMNu7kSZo4aZLymKo5mtFiROnn50cflSvHBowUe+QIc3mfPHliqQKxnMOGD+d/w3QfJCTQ4CFDEp0C3zKXLltG9PQpnTp1ipYtX07Hjh1LlMee6eIlYt26dbTgs88475bNmzl29Jy5c9l0c+bKRcHBwXzsVFwcwdxgiimRdu3cyTMI0AUvQDDMRYsW0aLFiw1PhynmPHnyMMYwoEkTwkvWhYsXyZU6VaZr2CDJIAqIAmlaATFdk91rjzIEo8H3v1GjR3MtR2JieKSJ6U2YLr71durcmY9h5IkRcEREhPKYUXNwTpg6FjetXrOGPntmeoDRwzAX6xgNTPdmfDyNHTcuySmyZMlClSpVoqYBAfy9t2q1aolGu/ZMFyPbPXv3WkbSe3bv5rjNMDuYbrbs2alv374W0+0VHMzfmfWSKxSllStX8upj7XzQCG3DNSN98MEHPDNw+dIlXePHNPPxr78mLK7Cdbhap970spCZjO5wOS4KpG0FxHQN+ldFGcJoD0i/CePHU6dOnXiUNGDgQIvp1qldmz7p0IEQv3je3Lk8yty1axebrt4xo9utW9eu1LFjR/5OXL9BA7p+/ToXQRuwsKp3SAhPH/uWL09Xr12zLIrSM10soPq/dOno7NmzbLp9+vShevXr87dhFZ1o3NixbGSdg4J4283Y8HDq1q0bHf3yS6dM1xWKEkbUGKW2bdeOXnvtNZo9axaP8DHVjQRyUmDr1rR5yxYKCwuzSIwXqePHj7NeoD5hmh3gCWwdcrZOfErAp4aAgACq4OvL9eGFAN+JkYTMZHSHy3FRIG0rIKZr0L8qyhAMGQ90mNOVK1cob968NHToUNr7bHoZxocFQjiOUR4ewCD5wHT1jhndbkAIYpR5+vRpate+vSU79qdOmDCBDRAJ32UHDR5sGV1i0VP8zZucxzq1aNGC+j+7BkxNr1i5kqY84/qq6ES4VizcQnvwbRd0pREjR3LVQ4YM4an1fv37879PHD/OJpZS08tYJT0TC8XefZfPd+jwYR71atQmvEjg2/XGjRstbUQ+jGaLFS3KZXDt6zdsoPDwcL4eZ+ssXKgQL3azTvMXLCAsSEMSMpPRHS7HRYG0rYCYrsn+1aMMIYACRmlYlGSdYKwvZ8jAD3lbkpDesXfeeYdy585tt0X43mpqG0yWLJQ+QwbeVmQWFWghCT14YNnyZFIWXsCErUjadiGz5VIiH77PYgvV3bt3TVePMrh+lNGQhdaFnalTdXIhM5nuGskoCqRJBcR0TXaro5QhzVgx3Wyb9I5hUVatWrXstiioSxfT22BMXpJkew4K2JKZ8KKFhC1bkkQBUSDtKyCmm0J9jIcpFud8++23Sc6gOpZCzZFq3VQBMV037RhpliiQQgq8UKliaQQwMky3bt9LkgdTb9iqkVoptc+XWtcl5/FeBcR0vbfv5cq9UwExXe/sd7lqN1FATNdNOkKaIQqkkgJiuiaFdifKUNGiRXmLDPZ8royKom+++cbkVehnwwprrKxOiwnXVrlyZd4ahK1RriasEG/bpg1Xs2PnTt4i5mwS03VWOSknCnimAmK6JvrN3ShDmzdt4kD90dHRFL1/P8cddiXVqF6d969WrFTJlWrctiziUi/87DOOg429za4mgCXKlClDQZ0707Zt22j2nDlOVymm67R0UlAU8EgFxHQNuk2PMoRRE6I4vfLyy7xNBUEqihQtyqEQQRpSEYhUFB48hNO/9BKHIkRC/GaQf7ClBeWwP3bK5Mm0YsUKDsyBkRvIOqrzoZ506dIRVmAjTjICX8TExHCsZl9fXw4n2axZM46mhYQwkNiepGoL8qnIRc4Sj1LiV4Q9u4BPYM90QNOmvKcayVUSFOJdQytb01Vduy1lSEw3JXpc6hQF3FcBMV2DvtGjDIHic/jQIY40BHgA9ngiqMIX69Yx9UdFIFJReFQhFIGuq/LxxxzWEFtMsBcXxKGvvv5aeT7sE8WimAcAACAASURBVF6yeDEh1CKwfYiYNG78eNq5cydNj4jgABf478SJE6wGwAV4iTAK56hHLnKWeKTXFa4QiFDnZoSF3L2bGjZsyIErPlu4kE/lKgnKnukaXbstZUhM130fjtIyUSAlFBDTNVBVjzKEoBgwXSDhRo8ezfGQwVAtUrgwBffubcHd2SMQqSg8RkaH5gKcgFjGGK1qSUU88vf3ZzBD8xYt2KyxChwjXy00Yc2aNWl4WBj5VqiQSA2jtuiRi5wlHul1hSsEorfffpvWr1vHlKNGfn784tGmbVuL6bpCgrJnukbXbksZEtNNicea1CkKuK8CYroGfaNHGUJIRZguvhGOGT2aA+yDUVve15eCgoJIRSBSUXiMjE7PdFXnQ5hHn/ff5xcEe8kV07VHLnKWeJQSP5MOn3xCvXr1ou49elDlSpV4Gh3M3Nu3b7tMgrJnukbXbnuNYrop0etSpyjgvgqI6ZrsG1vKUOSsWWy6gANYmy6+mwICoCIQqYx18ODBlOe113i0jPCER2NjeVRrTeixN9JVna9Xz55Uo2ZNnl7VM12EJ8QLg3UyaoseRMEV4pG99rlCIIIx4tutFkITi+LGhIfT+vXrXSZBoW58V58+fbql2UbXbksZEtM1+QOUbKJAGlFATNegI/UoQ0s+/1xpuioCkcp0u3fvTv6NGvHIDAbeOzjYlOmqzqeRbSZOnEibNm8mHx8fXnx18dliLSwWmxUZyUYPVCG+FeP7tFFb9EzXWeKRXlc4SyDClPvePXsYvQjYARK+bWPlN65VRXsyQ4KaPGkSfwsfGhrKJCHUa3TttpQhMd008iSVyxAFTCogpmsglB5l6MnTpxRz+DDVqVuXxowZQ3v37rWsEO7atSupCEQqCg9GdTAGfHfF99cCBQokIfSA2oMpU/B5taQ6H/KA74rROgwMgAKYjgarx3dnrIguV64cX0PTZs04fKVRW/TIRc4Sj0zes6az1alTh5GDtWrX5j26SJ07d6aOHTrwqH7EiBG6tCczJCigFCdNnMgrwkFZwgI0o2u3pQyJ6ZruTskoCqQJBcR0TXajHmVIVVyPQGR0SjBZAZbHd0dHktH5YLgY/SF0pz2ijr1zOdsW1JXVCeKRI9fral5nSFBmz6l37baUITFds4pKPlEgbSggpmuyHx2lDJmsVrI9RwWcIUG52lyhDLmqoJQXBTxbATFdz+4/ab0LCrgDCUpGui50oBQVBTxQAUH7eWCnSZPTjgJiummnL+VKRAEzCojpmlFJ8ogCKaSAmG4KCSvVigJuqoCYrsmOcZYyhLCAiHoUYbWXUzulihakKmeyyQ5lAzkHKS4uzqFyklkUEAVEAVHAvAJiuia0coUyhC0i2M4T+AwFZ306FS1IVc5Ek01nwZ7dwYMGcTzmq1evUgOdABqmK5SMooAoIAqIAroKiOka3Bx6lCFsz8F2GgST0NKLL77I3Nbjx48zaahs2bJMDEI0pBMnT1ryqWhByKRXLiXu4y5dulCB/Pk5bnTxYsWSmK4tFScl2iB1igKigCjgLQqI6Rr0tB5lqGfPnoToQq1atbLUgNHi2jVryK9RI/rpp59o9uzZbGhIdevVs+RT0YKQSa+cXlNdpfCgXgTPQDAJ25GuLRXHW34Ycp2igCggCqSEAmK6BqrqUYbwjXfa1KlM5oHxnjlzhvLly0c9e/SgqtWqWWpt2rQpfdK+fSLT1Q7ai6GsHVOVs22yKxQerS4907Wl4qTETSh1igKigCjgLQqI6Rr0tIoydPDAAQrp04fNd//+/fT7/fv0atas1PfTT1PVdJPjZtUz3eSoW+oQBUQBUUAU+J8CYrom7wRbyhAg8GvXrqVHf/xBIMfkyJGD+bSg1yxbvjxVTdcVCo/RSNeWimNSLskmCogCooAoYEcBMV2D20KPMjQzMpLB8JgGnjhpEvn5+VHhQoV4lfLZs2cJI+SMGTNSY39/nn4OaNqU/v77b/rjjz8sZ7Q3vWymnG2TnaXwoB4sBsO36ICAAKrg68sjdxBzNMC9LRVHfkWigCggCogCzisgpmugnR5l6H5CAtWtW5cpNg39/JhVG9i6NVWoWJHNtS4IN2PHJqod5B4QfLRkjxZkppzz3Z20JF4UVq9enejA/AULeDEXki0VJznPLXWJAqKAKOBtCojpmuxxZyhDJqt262y2VBy3bqw0ThQQBUQBN1dATNdkB3krZciWimNSLskmCogCooAoYEcBMV25LUQBUUAUEAVEgVRSQEw3lYSW04gCooAoIAqIAmK6cg+IAqKAKCAKiAKppICYrkmhnaUMqarH9qB//vnHZAuczwaCUP169Wj0mDFOVZJa7XSqcYpChQoV4m1bp06dsuTCFil8n//6668JkbzyPwvTqWU4evQob+t6LXduKla8eKLar127RpcvXybg+PTKJfc1SH2igCiQthQQ0zXRn65QhvSqr1G9OoWFhVHFSpVMtMC1LNhD3O/TT506V2q207WrTFp6wIABVLpUKWppJz52ixYtqPLHH1Pjxo0pd65clPDgAT148ICCgoI4bnaTxo1p2LBh9N9btywV79ixgyIiIgiQCL1yyX0NUp8oIAqkLQXEdA36U48yhAASoAVlSJ+eYMp58+Wj2NhYfmBr6fXXX6dyZcvSUyI6fPgw3b59mw/5+vrSR+XKUbNmzWjgoEH8t2PHjtEbb7xhSC7COUuWLEmPHz2ig4cOUUJCguV8xYsXp8ePH1PWLFmoSJEiTEA6dfo0B+6wNl0Ewfjt7t1EhCR7Mui189GjR1SpUiUOAqJdE9qVJUsWOnnyJGGEmSFDBsL1Z8qUiQ4dOkS//PKLoS7J/dNq3rw5de3alapUqUK5cuakh3/8QUAZTo+IoPK+vpZAJbt27qQNGzbQ3HnzLE2A6Q4dOpR83n9ft1n2yiGzkJmSuyelPlEg7SggpmvQl3qUoadPn9Kw0FAe8cTHx1PmLFno6ZMnVKduXR4xAUIfOXMm3bhxgxAxCubTomVLunXrFj/0MT2J/06cOMEtGD5iBNelIhflzZuXIqZNox9//JGyZ8/OhtuseXOCCSLNmDGD3i1enA3vRnw8vZQuHTXy97eYbqXKlSk0NJRADuoVHMwGqUp67cQ1bdu2jfZHR9OkyZO5ilVRUfTdd9/R0NBQGjVqFDVs0IAwHYupaVx/k4AAunfvnlIXvbY4S1EqV64czZk9m6pVr0579+yhXbt3U1xcHHXq2JFq1qplOZ2e6UKroC5dLPkuXLiQ6CVHz3SFzJR2HpByJaJAcisgpmugqB5lCMVguvjWCxxezpw5aeuWLdShY0c2s8+XLKG//vqLR7IwnTWrV9OatWspMjKSz1izZk0aHhbGlCItGZGLFsyfTzD7Ll278qh408aNbNZbt261mO57JUty1CuYO4z5zp07bLoDBwyg6P37qVLFitS9Rw8epZpJ9tqJcl2CgghTtDVq1iTEfgbSsFPnzswShulWrFCByUr4hrpzxw6aMXMmRUVFGepir03OUpTy5MlDO7Zvp/DwcB614iVgz5499O6771LnoCBD08X0snXYzt69e9NXX3+tLIeDQmYyc2dJHlHAOxUQ0zXodz3K0OVvv2XTzZkrFwUHB3Mtp+LiqEePHnQkNpZijxyhl19+mZ48eWI5w/bt2yls+HBd082cOTOpyEUwr3Xr1tGCzz7jOrZs3kyoc87cuRbTfZCQQIOHDEl0VTDdkSNG/K+Np07xi4F1u1QS6Jlu7ty5afu2bdT/2XdTGI3G4oXpZs+WjXr26sVVw2wRZxoxqo10Sc6f4QsvvEBfHj1Kp0+f5uv98MMPeQHV1atXaUx4uKHpOju9nJzXIHWJAqJA2lJATNdkf9qjDMF0s2XPTn379rWYLqZt8f02et8+pg0tXrzY7hlgZgixiG+L1klFLsLIds/evZbR8p7duylq1SpatGiRxXRvxsfT2HHjkpgu4AwjRo6kUSNH0oIFC2je/PmmrlyvnSg8c8YMevHFF/n78cqoKFq4cCHXCdN9PU8eHvkiYZQfe/QoL0Iy0sVeo1yhKGEEjtXGU6ZOpUZ+fvz/p06bRsutSFDJ/U1XyEymbi3JJAp4pQJiugbdrqIMqUx3wvjxVKxYMeodEsJTvb7ly9PVa9fo/PnzfEYs0JoVGUnBvXvzgqbffvuNp45V5KJxY8dSiRIleGoU24AAW+jWrRsd/fJLQ9PVFlJ17NCBunfvzoaI75tGSa+dKIcFSmAJY9tT7Tp1LIulYLp1atemTzp0oFdeeYXmzZ3Lo+9du3aRkS722uMKRWnypElUvXp1pj9hxN80IIBnJg4dPsxbhvAfvr1HR0fT+g0b6NKlS/xZQLWQSlUO7Rcyk9FdJcdFAe9VQEzXoO9VlKEhQ4bwNGq//v25FlCD8EDH9DJWy06YMIHNEQmLqwYNHsyjYCQsdpoyeTJhsU+6dOn4OywoRCpyERZSwSCwAAsGvWnTJh69agmLrOJv3uTzWqcG9evTp59+Sh9XqcIj0/nz5tGbb75J9erXN9wnrNdO1I+p9wP79/P0rTaVjL/DdPGSgQVQyINrBjIQ5mykS3L/FHv17Emtn9GfsMBpzJgxbL4//fwzr+gODAxMdEos+MKCsEaNGvELUJkPP0zSJFU5ZBYyU3L3otQnCqQdBcR0Tfals5QhbN9JnyEDj2SB/EuOhC0p2BpkvV3ImXox1Ypvs/YSvv0+fPhQWS22CWHqGN919+3bZ8kL0305QwZ+IcAoFauWbVNK6OKMBilRRshMKaGq1CkKpA0FxHRN9mNapAxhJFfLauuMtRTYKnPx4kVddUJCQqh1q1Ycoaltu3aJRsya6Q4YONCkumkrm5CZ0lZ/ytWIAsmpgJhucqrpRXUVLFiQg2Fg6xFG3dYJI2hMY2O6XJIoIAqIAqLA/1dATFfuBlFAFBAFRAFRIJUUENNNJaHlNKKAKCAKiAKigJiuyXsgJShDJk8t2UwoULhwYYYbIAjG+QsXLBG3sFI507/+RStWrtStBSE7EUErYvp0Sx4z5Uw0K8m0ux6dCIvS8uXLx/mx0h0hJ3///Xf+d0q0xdG2W+fX07r8Rx/xtjgEH0FCMJJfbt2iH378kd577z2OSY2E6zpz5ozls4TqGPI7cz5Xrs9eWUR3K1WqFB05csTS7gIFCnBkOPwNCYsGEWsdfQxQBlbtayFak7s9Up/nKiCma6LvUoIyZOK0ksWkAli4hEVhgCrAsBBMA9ujsGradi+1vSqxxQf7sbGXV0tmyplsniWbik6E9vv7+/M1vPbaa/Tg4UPq2bMnRxBLibY42nYtv0prBD5ZsWIFLXwWrAXBXLD/efqMGRw4pXixYryKH+aL/23Tti3vYVcdc/Z8zl6fXjkY/+pVqzhmubbtD3vAsY2veYsWjJBEnG/k+/6HH6hA/vwcDAahXyWJAtYKiOka3A8qyhCKgqjjU7o075s9c/asJfgFjmH/LVY9420YkICYmBgOvICkRwTCMT06keqYEfFI7zJV5RBZqWzZshxd6pfbt5midP/+fV4kBcrQKy+/TAi1eP36dSpStCiHpMRxo2tI7p/g+nXr6Oy5c4xKREKErCtXrvAWLRgWRikIn2mPBIXrS//SS7w96oQVAEJVDgvFUObCs9XdGCWj7+/evcvnV5GgcNxeBCyYLoKptA4M5P5HlLFzZ8/Sp/36GV6D3vmM7gnVfabXRyqtjUz3xvXrNCwsjEf0mzdt4v3kiKgG09U75uz59PrBlXt3965dtHv3bpo8ZQr/BgD8QAS5yFmzCBHrunfrxv2HFf245xAYBr8NJCFPJfev3nPrE9M16DsVZQgreDW6Dh7a+KE19PPjGjHVtGTxYh51IQoV8o4bP5527tzJx/WIQCo6keqYinikukRVOUANWrZsyVGaMJWGFwbg8l5EwItDh+jXX3/la8YUGl46vli3jqZOnZqqJCFcG0ZUGDnBoNAm62Sky+zZs3lUggRAg5ZU5VSRyPCSpSJBmTFd5Fn4LL52x06dlDQr1fmcpWCp7heV1jDdgwcP0tZt27iK8ePGMYxDG+lilfv8+fPpgw8+oJ49elhGjTBdvWPOnk9PF/wunb138SxARDgEssEL0soVK6hd+/YcHAb9BTiGdZAYax2FPOW5JpncLRfTNVBURRlq17YtTwECmYcfHEaGmN5EwlQhRi+YekKEo6xZs/LIVzMFmK49IpCKTqQ6piIeGZmuHilJwwciKhVeGhYtXMghJDGqw4MLhjx69GgOjPECYjAXLsxhLY0IS/ba4yxJCHUhehSuH6NuvCCsWbOGNmzcyKcxo0vTpk3pk/btk5iuni4q0zUiQalMF7MHi5csofd9fDh0JWJkz54zR3kNqvO5QsHSu2dUWsN0sY0MkceQcN8g9rhmuvjm/ueffzIIBDzqlq1a8csSTFfvmLPn09MFLwXO3rtVPv6YXyqr16hBDRs2JPz+q1arxusItm3dytPO422iwWk6Cnkqua3Lc+sT0zXoOxVl6O233qKly5YRPX3K394AOACMHql/v34MQIcx2UswXXtEIBWFR3VMRTwyMl09UhIeFHhxyJEjB0/VYpSA0eRXX33FD676DRrQmNGjGcIAdi/gDUFBQalKEtKuDaaNaV4AGjBljOAdBw4eVJKgtLJ6pquni8p0jUhQKtNt0KABvzQg0hg4y7ifMLug6lvV+VyhYKnuGT2tzU4vv/H667Tk88/5ZW38+PGJppdtj6EdzpxPT5flK1Y4fe9iuhgUMOA0sbgNL9AgUSGtX7+eSVqjx4zxXDeQlqeKAmK6JmW2RxlCUbzZY4SCQPr4log3X4x2EfMXrFm8EeuZrj0ikIrCozqmMgIj09UjJQEdCBjDqNGjuYojMTHMBz569Cg/uBC72dp0MaUHGENqk4Ssrw/f2rB4Z90XX9DMyMgki5CAX7ReDIOyeqarp8vgwYMpz2uv8ageD+KjsbGWOo1IUCrT1b7p2vaXqm9V53OFgoUpYEylXr50iWOJ20u2Wps1XdQ1bdo0+lfGjITIZ9bfdG2PqfpWdT49XfAN1pV7F4ul8O2+atWqNGLECNrx7HMRiFt4OcXo3V4S8pTJB60XZBPTNehkFWUIC6j+L1063p4C0+3Tpw8bERZNaaSZiRMn0qbNm8nHx4dXpmqhFTHStWe6KgqP6lhKmC5GCyfj4pgM1KlTJ8JUO0I7GpluapOEMKoFMQnaYpoSYSix2AXTzCpdMIuBVaeN/f2pVatWFNC0KY/o8alAVQ5T7P6NGlH3Hj14oVzv4GCL6apIUCo6kfVCKkdMV3U+VyhY/fr1o8DWrWnzli2WBWpol0prI9P94+FDmjV7Nq/4Rdv279/PfGmYrt4xZ8+npwsW3KlM1+jexX0yoH9/nkKvUrWqZVtXtWrVGGAyLSKC8Lsp7eNDd+7c4VkhJCFPeYGbmrxEMV0DoVSUoRYtWvA0Mh7e+K6DvaBTpkyx1IjVjBghY1oWC0UwMtKmn/WIQCoKj+qYinikukRVObxw4OGL68NqYDwsMZ0GlGDM4cNUp25dpvbs3bvXslK7a9euqU4SQhvq1qnDK0p5RH7kCE+DY4GX6vpQZuzYsYnkQehKLJRRlcPiOCySw3d6fK/HIjONLqUiQanoRIMGDaJiRYtyHGvbpGqL6nyuULDwAolvlhs3bkxEslJpvWfPHt4ytGTJEr6EDevX077oaOY/4xtrmTJl+O/Yp3vy5EkKHzuWX0RVx5w9n54uGHG6cu+iXswA4SUP6EotYT1B1y5dqH379vwtG58FgLPEbwNJyFMmHckLsonpmuxkPcoQphfx8MWUsrZdxrpKGC4WJGHPqCMb5VUUHkcIPa6ShDJnzswvDXhrdzQ50k5H67bNb+mHhAS6n5DganWG5dOnT8+fFm7fvm03b3KRoAwb8iyDs+dzpo9SW2tXzpeauqAr8IKKaWa8WGDGREtCnjJ7J6f9fGK6JvvYUylDrpCETEoj2UQBUcBAASFPyS1imRUpUvTtp87KgRGePVaqs/UZlUvt8xm1R46LAqKAKCAKiAKOKCAjXUfUkryigCggCogCooALCojpuiCeFBUFRAFRQBQQBRxRQEzXpFoqyhAWT2hReGyrs0ewMXlKj89WtGhRCmjShCN1rYyKom+++cZyTapjzl64qh+crdPZcljNiv3bWJ2LMKBaevfdd6lkiRL08I8/OGQiIjJpKU+ePLy1DIvyEOca0ZskiQKiQNpSQEzXRH+qKEM1qlfnfYwVK1WyW5M9go2JU6aJLAhqj1WcCFYRvX8//fjjj5brUh1z5uKN+sGZOl0p07hxY0Ks3r379vG2KyTs7cW98vPPPxPuKewJxt5grAwHnGDxokW84hUrxhHPt2u3bq40QcqKAqKAGyogpmvQKSrKkK+vL31Urhw1a9aMIzUhYR8u4AdI9gg2rlBOQIXBXk7rdOyrryxblVKTNoM2qM6H/YwIFoB9mwiwgQAiGPWhjN4x1KmiNulRcYz6IbV/d9imsmHDBvr7r7/42jXTnTtnDuXMmZOaBARQ4UKFaPXq1Xzf7Nq1i4YPH877WLHKFdHMAgMDeR8o9oMiCaUmtXtRzicKpIwCYroGuqooQ9MjIhhYjf8QKxcJcVk1nJc9gg1GMc5STqpUqUJtAgP5PJiKxH8a5SS1aTOq87Vu3ZoQHB6hBBE8AlOooMt89fXXpDqmojapCEtG/WCvi1999VWOQmWbEIgfcXRdSRMnTOBgIfjvz7/+spguzBcj8g4dOzKJadTIkdSseXNGwa1ds4YDRiCWN0JYAgqAQCuIv4wklBpXekTKigLuo4CYrkFfqChDKIoA+8PDwsi3QgW7NdnG9dVM1xVCD4IyYAR59eefGSWGaFipTZsxQ9NBAHjEOQZH2DbZO6aiNhmRi4z6wfb8zlKN8K0WLwcv2FT4+M8/efoc33Fhuv6NG9PgQYMSmS7g9EBBwvCRwGZFWE0kBP8HJL1UqVIc3APAd0R4AqEHSSg17vPQlJaIAq4oIKZroJ6KMuSK6TpL6MH0dOTMmQwCb9W6tSX2a2rTZszQdBw1XRW1SUVYMtMPrvxIrMtimnffs9B+1n+Pj48nv0aNGM6OBVLzFyygseHh9NfffxNCPIIchOn2EiVLcujJt56FjuwdEkKHDh1isD0WUKH+xk2a0PJly2jLli2M9pMkCogCaUcBMV2TfalHGcIICyHegLWzl/RGus4SeoJ79WJcYNu2benbK1csp0wp2oyePGZoOo6aLs6lR20yIhcZ9YPtdSB+8hdr1ya5PHx7xpS9KuFFzDY9ffqUw33u3bMnyTEEvQdN58D+/Qx1B4wBaX90NAMFQNxZsXw5FS9enD9P4BsvPkFMmjyZoQ1IQqkx+UOVbKKAmysgpmvQQSrKEIpiodWsyEiGGQCDh++XeADrEWzwnc9Zygm+6U6dMoWmTJ1Ku3ft4pb/eucOb1dKKdqMnjyq82llHDVdFbXJiP6i1w967Uc86aJFiiQ5nPDgAX3//fdO/2yxKhlT0EjQCIHvsVgKo1gY6J+PH1NInz6MgcSMBaDo+I7brVs36hIUxMCDcmXL8r8xG6KtDxBKjdNdIgVFAbdSQEzXoDtUlCEUBVEE04blypXjhTMg1IBUo0ewaf/JJ05TTjTyi3WT8ZDG/teUos3oyaM6n1bmxPHj1KtXL4o9ejRJNfaOqahNKsKSqh+e569t2tSpbLrad9sPP/yQjRhTyEhYWIY+hSFjhA8aD/bwYivRvHnzaMFnn1maL5Sa59mTcm5RIPkUENM1qaUeZchkcYezOUN/wUmSi6pilk7k7Pn0BDGiNjmri8MdkEIF8E3+39mz87dewNBtE0bKoFFZE2qQRyg1KdQhUq0okMoKiOmaFNxTKUMmLy9JNqETOatcypQTSk3K6Cq1igKprYCYbmorLucTBUQBUUAU8FoFxHS9tuvlwkUBUUAUEAVSWwEx3dRWXM4nCogCooAo4LUKiOma7Hp7lKHSpUtT2zZtuIYdO3dyhCHbZI8yhMD3CPMXtWqVybM/32zuTkrKlCkTb91ClKmb8fF04OBBXgFsNqEfkbQ4x2bL6ZGEzJaXfKKAKOB9CojpmuhzPcoQAvAjSH1Q5860bds2u9GD7FGGENw+c6ZM1K9/fxNnf/5Z3J2UtGjhQgIq8NatWxyp68yZMxzf2Mh4gdFDqEaEdbx69So1aNjQIbHtkYQcqkAyiwKigNcpIKZr0OUqypBWFHGBQReyDdlnjzKEMjDdbK++Stt37OD9mQgDCMNQJWw1qVypEp06fdrCYC1WrBgHYkBQDiQ9Cg+OIdrR48ePCVtuEJgBZVAXkorso3cNKOcs1Si5f2XoI+xVRqhF8HtDQ0OpTdu2bL6q1KVLFyqQPz+98OKLHOvYEdPVIwnhfEIESu4elvpEgbSjgJiuQV+qKENGpmuPMqSZLqaYEW0IpompZo2rqtccRLjC9DVwcCD2IG3bupX2RUdzVCMVhQd5Z8yYQe8WL87BPG7Ex9NL6dJRI39/HuUhCD9oQEASIpRhQz8/SzP0rsFZqpHe9SUX9QftQqSn5i1a0KVLl0z9Urt360Z16tRxyHT1SEI4oRCBTMkumUQBr1RATNeg240oQyiuN9LFMdvYy5rpVq1SherUrcvhIgEPgJF+vnSpsjUDBwxgRi8C4pcoUYKWLV1KLVq2pIsXL3IbtJCDCHG4ZvVqWrN2LUc50kz3vZIlOWIWRtUwV8DTVWQfrTH2rsFZqpHeBTpL/bGuL3369BzDGIElED8Z4TjNJEdNV0USwvmECGRGdckjCninAmK6Bv1uRBly1nRz58pF3Xv04LODKHPhwgUKHztW2RrNaMFg9fPzo4/KlWMDRjKi8GCk+yAhgQYPGZLoHCqyj8p0naUapdTPDNPvkyZOJF7c1q4dXbt2zfSpHDFdGLuKJGT6YelqvQAAIABJREFUpJJRFBAFvFIBMV2T3a5HGdJM92RcHE2fPj1JbXoj3fz58vFiH6SolSvpxIkTFvqMqklbNm9m9ioWN61es4Y+exaf14jCA9PFyt6x48YlqV6P7KMyXWepRnrX5gr1B3WOGDGCqlevzovazl+4kOg0H3zwAc8MXL50iY7ExiZpgp7p2iuXI0cOJUkIlQsRyOSPSrKJAl6ogJiuQacbUYZQfPKkSZQ/f34aGhpKN2/eZMatHmUIU59YSNWgfn02XUwFY6o2dNgw2r59u+Et2K1rV+rYsSPXb02hMaLw6JmuiuyjugZnqUZ6F+gK9SckJITat2vHiLwTJ0/yKQCUx8IqpH79+lFg69aM0QsLC7M0AaNWfNMOCAigCr6+TP9B//3666/KciqSEAoKEcjwNpYMooDXKiCma9D1RpQhFMcqYkxtvvHGG7Rp0yZmoupRhvBNdVhoKFWsVImyZ8vGZKKYmBh+4BttccG5YO4YZZ4+fToR99WIwhMxbRrF37xJEyZMSHTFKrKP6hqcpRqlxC8NyLxCBQsmqhpGu3ffPv6bRmfauHEjjRg50pKvcKFCvDDNOgE+j8VjqnLW+W1JQjgmRKCU6GWpUxRIGwqI6Zrsx5SgDGXMmJFHuvfu3eNWmCX7qJrsDIXHiOyjOl9yU4ZMdodbZxMikFt3jzROFHiuCojpmpQ/NShDQvYx2Rlunk2IQG7eQdI8UeA5KiCm+xzFl1OLAqKAKCAKeJcCYrre1d9ytaKAKCAKiALPUQEx3ecovpxaFBAFRAFRwLsUENM12d/2KEOqomYIRCZPnWzZsAXon3/+Sbb6XKlIRS5StdPdiUfQJE+ePASYwoMHDyg2Npb+/PNPQ6kQNxv3DCKFYdvSgQMHOMKYJFFAFEhbCojpmuhPPcqQqqgZApGJUydblhrVq/MeVWxVcoekRy4yaqe7E48AgVi8aBGHosycOTNv7erarZuh5JMmTaL3fXzozm+/EaKEXbx0idq2bWtqG5lh5ZJBFBAF3EYBMV2DrjCiDKnIPqhaLy6zvXIIZYi4vq+8/DKDEABEKFK0KAfNuH//PrdU73x42GdIn57wgpA3Xz4eYf30009cxtfXl0NGNmvWjAYOGsR/AxUJgANVAn0IgAScE8xa0JB++eUXSxE9yhAyOEMuMmqnJxCPEPgEuEesYO7VsycFBgbSJx06WFi9egSirFmzclAVxIuuXbs2jR83jloHBloIUkIucptnpjREFHBJATFdA/lUlCEjso+e6eqVw+jo8KFDHBEJ04yPHj3ih/AX69YZkoQQcAN81/j4eMqcJQs9ffKEgQqY4pweEcFBNfAfwk0iIYAHTF2VRo0aRQ0bNOA4xpjyxZ7iJgEBvK9YRRlyllxk1E5PIB6tXbOGTp48SUuXLaN1X3zBBKkpU6bQsuXLWWoVgQgvXej3li1bcoStmrVqWaJjCbnIpeecFBYF3EYBMV2DrlBRhozIPnqmq1fu888/Z9PFQ3f06NEcYxms1yKFC1Nw795KkhBHuapYkfF0OXPmpK1btnCYSRgAUs2aNWl4WBj5Vqhg+uaD6VasUIHq1qtHCJkIyMGMmTMpKiqKQ1fihaBL167/i8S1cSMb+datW50mF5lpp7sTj9Bnq1etolKlStH9hATm9O7Zs4emz5jBuqsIRD169KDOnTpxvqVLl9LUadMsfSXkItO3rWQUBdxaATFdg+5RUYaMyD56pqtXbtLkyWy6iKk8ZvRo2rN3L3Nvy/v6UlBQkJIkBNPNmSsXBQcH8xWdiosjPMS1AP/Omi5CVfbs1YvrhNnGnTxJEydNYgNet24dLXgGXACIAdPgc+bO5W+SGOnR06d06tQpHuVhOts62TNPZ03XnYhHu3bu5NkFTAeDAAWC1JYtW2j2nDmGDwJMMWMRVqNGjSigSRPCC9+FixcNy0kGUUAU8BwFxHRN9pU9ypAR2UczXVsCkV45LLyB6darXz+R6WIqt3NQEKnOB9PNlj079e3b12K6vYKD6fDhw5aRLsITwsDNJox0X8+Thzp17sxFwOiNPXqUIiIieGSLlwKN17tn926KWrWKFi1axHmdIRdppqtqpz2zdifiEXi+xYsX51H/rl27uD/xMoX40EgwVsSJ/u+tW/Tzzz/b7QpMMx//+mvC4ipoiiTkIrN3reQTBdxbATFdg/5RUYaMyD6o2h6BSK/c1atXlaarOp+R6WJB2KzISJ6mPnfuHP3222+GkHeYbp3atXkhEOIzz5s7l3m8MBMVZchZchH00munpxCPunXrRl2CgpjpW65sWcK/rWlQet9m8VJ3/PhxunXrFhOoevbsyRAMbB1CEnKRez9IpXWigFkFxHQNlFJRhozIPqjaHoFIrxy+v8YcPswLoMaMGUN79+5lChFGul27diXV+YYMGcLUon79+/MVnTh+nKeatellrEKeMnkylStXjusE7ejbb79VXj1M17d8eXr11Vd5IRVGzTAC7PVVUYacJRehMXrt9BTiEUb4GP2XLFGCt/vMmzfPMgWP66tRowYTqWyJRytXrqRiRYtyfzx58oTWb9hA4eHhlhcjIReZfaRJPlHAvRUQ0zXZPyrKkDNkH55qzJKF0mfIwKNOM1g/ranOlrO9VCOq0aBBg+jlDBkYh2dNQ7KuR48y5Aq5yGSXJMnmTsQjbN3C6nOsSDebMPUM3e7evctlrZOQi8yqKPlEAfdWQEzXZP+kBmXIZFOSLZsR1ahVq1ZsugMGDky2c0pFzikg5CLndJNSooC7KSCm62494kbtwUgYi3qMpqHdqMnSFFFAFBAF3FoBMV237h5pnCggCogCokBaUkBMNy31plyLKCAKiAKigFsrIKZrsnu8mTLkTnQik92VKFvhwoWpdKlSvCr4/IULdPbsWXotd24qVrx4kuqQR9umg8Vj2PaD8JnYV4vV27YLnGwrUNGlUpI8lRpkJoSoRKStI0eO0OPHj/nSCxQowBHJ8DcteQIJypn7SMqIAsmhgJiuCRW9mTJkRP0xId9zzYIFSFgwBlADIkW99dZb9HGVKrx1Sgskgq1YgD8kPHjAMasRnARbl+bMnk0w7O9/+IEK5M/PQUHWrF2rvB4VXSqlyFNGfZRcZCZogRCX1kFXsA8d28eat2hh0SW5zvdcbxw5uSiQQgqI6RoI682UIT3qD0Z7oCFhxHj79m1WEMQh7FHFXmMjOpERmSk57/X169bR2XPnGGuIVKRIEbpy5UqiLVrbt23jmNHWoRoRrKJ7t25M+rl8+TKDCLCdR4NEqAhLOI8eXUp1TKWLtl8bo8obN25QTEwM83ZTm8y0e9cu2r17N02eMoUX2e2Pjqa1a9dS5KxZrK+KBGXv+gDHQFxvBGzREuqtXLkyBwvR6FrJeU9IXaLA81RATNdAfW+mDOlRf/DQ37ZtGz9wEeIQaVVUFH333Xc0NDSUVHQiM2Qm2y5BcA5sX7JNgL2vX79e2YMIEYl90J/262ch9tgWsGe6Cz/7jPfYanGnrcuoCEtaPkdNV6ULprmXLF7Mo/Tz588TjGrc+PG0c+dOQ4JUcpOZ8HsoUaIEB1dB4JeVK1ZQu/btmRuMpHc+vetr3rw5R9uy7l9cH2hNfo0aWfCUz/MhKecWBZJTATFdAzW9mTIEafRACQh1iMhTNWrWZDPAQxIxmjE6UdGJzJCZbLskV65cNHjw4CQ9BV4wpnxVCfAAhMgEn/jSpUscA3nDxo2Jitgz3W1bt/I33PETJiSpXkVYctZ0Vbr4+/vzFDmmcPFigyAaGPkCAanqI60tyUlmqvLxx4yZrF6jBjVs2JCJUlWrVePv5arz6V0fzHra1KlMv4LxnjlzhvLly0c9e/TgeiWJAmlNATFdgx71ZsqQ6oGeO3dugln1HzCAFykBPQesIBJMV49OZIbMlNw/Mpg2EIV4gcD0Z0hICB04eNByGnumixE0iEqjx4xJ0hwV1chZ01Xp0r9fP/J5/31GPtpLRgQpe6brLJkJU+wHDxxgoIOfnx8b/9ChQxM1y975VGQt1IfwojDf/fv30+/379OrWbNS308/Te5bQeoTBZ67AmK6JrvAGylDmunqUX9mzpjB3/XwnXRlVBQtXLjQYrp6dCIzZCbbLsFI+gs7C5jwTRlTm2YT2hodHc1w+ZmRkUrTxbXlyJGDWtqZ1jYiLKFijOxs6VLWhmyWPIUyvXr25BkFjCz1TDc1yUxYYIZQlVWrVqURI0bQjp07DU1X1e/4Jvzojz+YpATNYeR46QESUpIokNYUENM16FFvpgxBGhWdqEqVKjw6AQChdp06vEJYG+nq0YnMkJlsuwTfNIsWKZKkp7Da+Pvvv1f2IEa1cXFxdPHiRR6RYxSORUAaag+F7Y10q1WrxoCIaRERzA4u7eNDd+7coa+++kpJWNIaY48upTqm0kUjDE2cOJE2bd5MPj4+rDWuSdVHKUVmwjTwgP79ud+rVK1Kv//+O7dDdT7V9WHqHKNjcJoxei5cqBAFtmnDC/UkiQJpTQExXYMe9WbKEKRR0YnwkD2wfz8vorFecKSiE5khMyXnjwy0JhCKMMpFwn5SLKqy3m+7dcsW2rJ1KxOBtIRvwF27dKH27duzBlgpDKwhyE8qwpJW3h5dSnXMSBespMZsC15AsEcWiMZjx45xlalNZsL1b9m8mV9mgH3UkooEpbq+unXr0tjwcGro58ej+cDWralCxYoOQUCS856RukSBlFRATNekut5IGcLeVVXCthmA7fFdd9++fZasMF0jOlFykZLMdJ+FeJSQQPcTEswUseTBiwWmPDGasyUGpQTVSKULDBdbl+7du2cYpMPsRabENajOnZr9blYDyScKpKYCYrom1fZGypA2fWlPIkzbtm7VivewAtiOqUYtaaYrdCKTN5dkEwVEAa9RQEzXa7o6eS8UeykRDAPf3bSQgNoZhE6UvFpLbaKAKJB2FPAo0007ssuViAKigCggCnijAh5nugiD9+abb9IPP/xAt27d8sY+k2sWBUQBUUAU8FAFPM50sRWle/fuhDiuiIj07ZUrHiq9NFsUEAVEAVHA2xTwONNFB2FFKaLYYL/lRpuQft7WgXK9ooAoIAqIAp6jgEeaLuTdtXMnLVy0KFGQA/wdWyAQkB1B+bGyVpIoIAqIAqKAKOAuCnis6SIgPRBj02fMSKRl7Vq1aPz48bR5yxYLzs1dxJZ2iAKigCggCni3Ah5rughDV79+fQ6Lt2PHDkaeISHw/sgRI2jb9u2EsHmSRAFRQBQQBUQBd1HAY023R48ejBXbvn07rd+wgb755ht30VTaIQqIAqKAKCAK2FXAY00X08uHDh+mCTa8U5BKChUqxODyH3/8UbpdFBAFRAFRQBRwGwU81nT1FlJpRJaDBw9S75AQtxFaGiIKiAKigCggCnic6YL+ggAZYKKOCQ+nLVu2JOrFevXqUfiYMfz3YWFh0sOigCggCogCooDbKOBxptuuXTsK6d2bI1J16dKFfrl9O5GYgHkDD9YcgTO+/dZthJaGiAKigCggCogCHme6CIyBZE21se7GJk2acPAMa0i5dLMoIAqIAqKAKOAOCnic6bqDaNIGUUAUEAVEAVHAGQU8ynTHjRune42DBw925vqljCggCogCooAokGoKeJTpppoqciJRQBQQBUQBUSAFFPBo002XLh2NHjWK5s6bRz/99JNFnvfff58qVqhAEdOnOyQZvgXrfSt2tk5VA1TnU5UzaoueLg6JYZA5U6ZMVL58ecqVKxfdjI+nAwcP0t9//82lVMdwPE+ePOTj40MPHjyg2NhY+vPPP7ncWwUK0Ftvv20587179+jEiROJWlK6dGn+d1xcnOXvIE7h79mzZ6ebN2/SgQMH6K+//uLjqmOqtiSnVlKXKCAKiAKaAh5tui+//DJ9efQodezUKdHDGduGWrZoQYFt2pju6RrVq3Os5oqVKtkt40ydqpMbnU9V1qgterqYFsNExkULF1LRokWZaZwvXz46c+YMdejYkY1Xdew///kPLV60iP744w/KnDkznT59mrp268Zn7N27N7UJDKRf79zhf3935Qp179GD/z9MevCgQVSwYEG6evUqNWjY0NLKSZMm0fs+PnTnt9/o7bfeoouXLlHbtm25LapjqraYkECyiAKigCjgsAIeabqlSpWiYkWL0qXLl2nhZ58lMt2yZctS+pdeoocPH9KJkycTCYJIVT6lS9PTp0/pzNmzlnjNvr6+9FG5ctSsWTMaOGgQlzl27BjXgaRXJx7aGdKnp2zZslHefPl41GY94saIs0KFCryvGNSjmJgYHoEZnU/Vi6rrU+ni8J1hUACjXITeTEhIoIAmTSg0NJTatG3L5qs6Nnz4cCpTpgxhlXmvnj0pMDCQPunQgUeuMN0S775LnTp3TnJ2bA8rkD8/vfDii1S8WLFEpps1a1b6/fffuV9r165N48eNo9aBgXTu3DlSHVO1BQ0QYlVy3zVSnyggCnic6TZo0IBGjRzJD9R33nmHXnnllUSmO3v2bH44I9WtV8/SwxghrYqKou+++47NFFORDf38+Pj0iAjKnz8//6dNZw4fMYKuX7/Ox/XqHBYaSo0bN6b4+HjKnCULPX3yhOrUrcvTpi+99BItWbyY3nrrLTZ3nH/c+PG0c+dOw/Opbku9thjpYq/OV199lVq1apXkEKZo169fb/rXgReLyJkzeW/0pUuXEpWzPbZ2zRo6efIkLV22jAOcYFQ+ZcoUWrZ8OZtundq16eChQ6z9hg0b6P79+4nq696tG9WpUyeR6SLDiy++yH3asmVLat+uHdWsVYt+/fVXLqt3TNUWlBNilelbQDKKAqKASQU8znTxoLxy5QoNHjLE8lC0nV5u2rQpfdK+fSLTBRyhZ8+eVKlyZZ7aRIxmmKOWatasScPDwsi3QgW70tmrE6ZbsWJFNoCcOXPS1i1beIoVpuLv709DhwxhI4LRY8SFka9mBEbnU/WfvbaY0cW2TnyPtbfqG6P1iIgIU7dQ+vTpacXy5axpu/btebSpJXvH9u3bR6tXrSKMyu8nJPCodc+ePYxo7NatG33w/vuEb7kYLcP8od/jx48tdeqZLgAYnTt14nxLly6lqdOmWcroHVO1BYWFWGXqFpBMooAo4IACHme6+IYLQ1i1ejWPbKL37UvyTdeeKeFbH0ZX9PQpnTp1ikdWmEJ21XRz5spFwcHBXM2puDjCA/5IbCz179ePfN5/n0de9lJym64ZXRy4L0xlxQhy0sSJvIipbbt2dO3aNUs5vWOImY2XHUzdNm7ShJYvW8YhO2fPmZPonB9++CHNnzePevbqxdPyWtIzXbzUYIFWo0aNeLq7TZs2dOHiRS6md8xsW0yJIZlEAVFAFDChgMeZ7oH9+2nBggW0YuVKXpm6fds2U6YLLbJkyUKVKlWipgEBVKRIEaparZpltAsTRAjJ8r6+dmXTG+lmy56d+vbtazHdXsHBdPjwYf5eWaNmTQ5JqWe6qvOp+s5eW8zoYlsnpr6/WLs2yanOnj3Lo1ajNGLECKpevToFde5M5y9cSJRd7xhGxcWLFydM3+/atYsOHzpEkyZPThJBDEZ58MABCh02jLZu3WpouloGmP3xr7/mBVRRq1YlapPtMaO2CLHK6A6Q46KAKOCoAh5nurNnzeKFS5gqbt++PY9otOllbMHJmDEjNfb352+VAU2b8gpWTH1iAdX/pUtHMBSYbp8+fahe/fq8wAkJ05mzIiMpuHdv/l4MNCCmSlV1YnpZz3Q12tHEiRNp0+bNvPr2l19+oYvPRl9651N1oKotKl306sR356JFiiQ5nPDgAX3//ffKeykkJIS/nU6bNs2yYA0oRSysUh3DFHKXoCAeGZcrW5anlOs3aMDfcFu0aMGrmTG93KljRx61Nm3WjKfnMVWN7+IBAQFUwdeXQvr04elnTNd/8skndPz4cV5J3aB+fb43cBxbh1THVG3BxQuxytHHieQXBUQBIwU8znQLFy5MMBhMT978738pV86c/B0VU8Z169ShsWPHJrpmQA/w4MYDHVO+MK4nT57wSBkLeLSUIUMGmjJ5MpUrV46/vaIMyqrqHDJkCGXPlo369e/P1Zw4fpynmjG9jISpUDz0YW74LglD16a09c6n6jBVW1S6GN0EzhxHbOtCBQsmKtqvXz/au28fj1r1jmG2ITIykkqWKMEvRPPmzaMFn33G9axevZoKFyrE/x96zYyMpOXLl/O/8Xcct07zFyzgRW4rV67k1exI6Nv1GzZQeHg4vzSpjqnagrqEWOXMnSFlRAFRQKWAx5kuLgbThDBdjHLwkDWbsNIZ05b4pmi7KtZsHY7mg+Hi2zNGb48ePVIWx2rs3Llz282DlwptC5NeJc7q4ug1JUd+zFZAD8xCaAnYRixIw/+ib7VgG2bOh35F/969ezeJzqpjqNteW/B3IVaZUV7yiAKigCMKeKTpOnKBnpQXq51r1aplt8lBXbpYpqY96Zo8ua1CrPLk3pO2iwLuqYCYrnv2i7RKFBAFRAFRIA0qIKabBjtVLkkUEAVEAVHAPRUQ03XPfpFWiQKigCggCqRBBTzWdJ0l9LhTH6bWNSB4Rf169Wj0mDHudPnSFlFAFBAFvE4BjzRdVwg97tLDqXkNfn5+1O/TT3UJSu6iibRDFBAFRIG0roDHma4eoQfbTxBtCsEvbt++zf0GChD2YiIWMghD2BuLKFbgvR46dIiDVWgJf0ewBkQORkQprY6UuAGMKEOI2IR9qlmzZOHIWQjWcer0aY4XDcrQ63ny0C+3bzPVyHrrkx7VyNZ0EVzit7t3uV4koemkRC9LnaKAKCAKJFXA40xXjwiEyFLbtm2j/dHRHFYQSaMKDQ0NpVGjRlHDBg04PjCmdbF/tklAAO+fBRQelBzUgb/DlFu0bMkRjvSSK4QeI6rRjBkz6N3ixfkl4UZ8PL2ULh018vfnSE6I5QyST4ECBRgT2Lx5c3rw8KGSaqSZLmAPQPCBnoNwlXgZQRKajjwaRAFRQBRIHQU8znQhix4sAKaEyFOIeYy4wiDvgM2KEIEw3YoVKjB5CCEFd+7YQTNmzqSoqCj6fMkSNjCwdGG6a1avpjVr13LkJL3kKqFHBTyA6b5XsiRHxYLxI7jGnTt3+H8RZhFmjJCIgMV3796dYo8eVVKNYLoDBwyg6P37qVLFigyGx4yAloSmkzo/NjmLKCAKiAJpynQRzQkAhP4DBlDpUqUYzQbsHhJMFyEbQa1BgtnGnTxJEydNotgjR5jrah3davv27RQ2fHiK3SFGpvsgIYHxhdYJ14MAGjly5OBoTXhB+LRfPwKiTkU1gumOHDGCq0JkK4TNdCSSV4qJIBWLAqKAKOBlCnis6eoRembOmMFhIvEtdGVUFC1cuNBiuvgWipEvEkazGCECEwg8IFB/ixcvNt39rhJ6VFQjjHRvxsfT2HHjErVny+bN/B121OjR/PcjMTE8Ot+9e7eSagTThVmPGDmSRo0cyZSmefPnW+oWmo7pbpeMooAoIAq4pIBHmq6K0FOlShWaNnUq/fPPP1S7Th3LYimMdOvUrk2fdOjAMXrnzZ3LI0ng5SaMH0/FihWj3iEhPJ3rW748Xb12jc6fP68rriuEHlSqugY908WU+Mm4OG5vp06dmLA0YOBANl0V1ch6IVXHDh14ShovH3FxcXx9QtNx6TckhUUBUUAUMK2AR5quitCDRVJgywIRp00lQw2YLswUC6CQByuUgX+DOYNUNGHCBIaxIwGIMGjwYM6TUkl1DRHTplH8zZvcJuvUskULAskH7b9y5QrlzZuXhg4dymQfJD2qEXB3n376KX1cpQrPAgAO/+abbzLaENcvNJ2U6mWpVxQQBUSBxAp4pOmqOhHbhDB1jO+6+NapJZjuyxky8BQrRqlYtWybsEUnfYYMzNJ1hHCTmjdV5syZuf1YWGUvOUI10soLTSc1e1DOJQqIAt6sQJoyXcDTW7dqRZcvX2ZIOkZxtqaL6VhJiRUQmo7cEaKAKCAKpI4Cacp0sY0GwTCwHQbBJawTWLWYWgWYXpIoIAqIAqKAKPA8FEhTpvs8BJRzigKigCggCogCZhUQ0zWrlAv58J35tdy56cTJk/THH3+4UJMUFQVEAVFAFPBkBTzOdLHCuG2bNqz5jp07ebuMbUJYR0Sfipg+3XLIv1EjDoARtWpVqvYXtvX0CQnh0I1Y3IUwlJJEAVFAFBAFvFMBjzNdgAnKlClDQZ07c6zl2XPmJOk5bIHB9prAZ+aMDMOHD6fMmTJRv/79U7WnpzyLA43IUZJEAVFAFBAFvFsBjzNdrbsQL/nYsWNJTBcUnvQvvUQPHz7k6VwtwXSzvfoqbd+xgxdbgTKkAhok122BiFd3fv3VEkUqueqVekQBUUAUEAU8T4E0Z7qzZ8+mAvnzc08AbmBtuphivn79Or3wwgs81RzQtKnufleUc4UkpJ0Xe4ZPf/MNhYeHe97dIS0WBUQBUUAUSFYF0pzpQp2mTZvSJ+3bJzHdqlWqUJ26dTmiE0Iqzp8/nz5fulRXUFdIQsDlgZuLGMuDBw9mwo8kUUAUEAVEAe9WwKtMN3euXIy1Q1q+bBlduHCBwseOTZE7oGHDhlSzRg0qVaoUf0f+8ssvU+Q8UqkoIAqIAqKA5yjg0aaL4P/TrVYoa7LrjXTz58vHWDukqJUr6cSJEzR5yhTd3nKVJISKN23aRF8ePUrjxo/3nLtCWioKiAKigCiQIgp4rOlOnjSJ8ufPT0NDQ+nmzZv0+++/87RxxowZqbG/P7Vq1Yq/2SKGMvbGYiEVAv/DdBGfeMH8+RQ6bBiBm6uXXCUJoV5eSHXnDgMXJIkCooAoIAp4twIea7pA8U2aOJHeeOMNHk0OHzGC6tapQ2NtposR9rFps2Y0LDSUKlaqxCD7dOnSUUxMDFOGUhpsMDY8nLDNqVdwMN1kmq+UAAAgAElEQVS/f9+77za5elFAFBAFvFwBjzVdZ/sNI2E9ypCzdarKVfD1pdGjR1O2bNnY/CX2c0qoLHWKAqKAKOAZCnid6T6vbkmfPj39+eefz+v0cl5RQBQQBUQBN1BATNcNOkGaIAqIAqKAKOAdCojpekc/y1WKAqKAKCAKuIECYrpu0AnSBFFAFBAFRAHvUMCjTDdr1qx0796959IzFStWpAcJCYS9wVp6nsQjrMAePWoUzZ03j3766SdTmmBL1T///GMqr3Ume9QmM9fu8IkMChQuXJhKlypFT548ofMXLtDZs2e5hJ+fH2X6179oxcqVujXYuwYz5Ry9hnfeeYe3slmno0eP8rY1IB7z5cvHhx48eMDBWbDVzew1ONoWV/LraV3+o4/o6rVrdPXqVa7+ww8/pF9u3aIffvyR3nvvPfr3v//Nf8d1nTlzhh4/fsz/Vh3DcWfO58r12SubPXt2DmZz5MgRS7sLFCjAOyTwNyQswixXtiz38X9v3aLDhw/To0ePLNXlzZuXY7ojhCziv1vvWHCnY8mtndRnXgExXRNaYeXxwAED6H5CAm3etInOnT/PD/7nSTxC7GgE3ejYqRMH+TBKNapXp7CwMN425WiyR20yc+2OnkeVv0mTJjR0yBD65Zdf2LAQuOTjKlX4JQzbwbJlz059+/bVrcLeNZgp5+g1dOnShRo3bkyIfpbw4AG3NSgoiF+M0H5/f3++htdee40ePHxIPXv2pFOnTpm6Bkfb4mx+ldbR+/bRihUraOGiRVz9po0bKTo6mqbPmEELFy6k4sWK0W+//cbmi/9t07Ytm5DqmLPnc/b69MrB+FevWsXb+2CmSIgHALNs3qIFxwCYM3s2vyB8/8MPHOMd+/DXrF3LeTNkyECHDx2iTp07U9iwYYwRXbdundsdS27dpD7HFBDTNdCrfPnyFDFtGo9U8OYKA27k788BObSUmsQjvIkXK1qULl2+TAs/+yyR6cII8Rb+lIgfGrdv3+YmIgb0R+XKUbNmzWjgoEH8NxCacD3/+te/CGSm1/PkoV9u36bY2NhEb+d61Caja3fsNjTOvX7dOjp77hy/OCAVKVKErly5wvusYZ4YpeABlzdfPr4G69G/3jWoymHEClrVhYsX+XzgM585e5bu3r3L/8aotWTJkvT40SM6eOgQJSQkJLqIXTt30oYNG3gmQkswXewvbx0YyC9sixYtonNnzxKwj0bXoHc+/D1D+vR8X9q7dr17QqW4Smsj071x/ToNCwvjET1eUCdMmMDmA9PVO+bs+fT64cUXX6RKlSrRKy+/zHATQE6KFC3KgXC0kaeeLrt37WJGNyLVoZ790dG0du1aipw1iz755BPq3q0b99/ly5f5nnvllVe4fsz84J4c0L8/h32FWY8fP5527tpFb7/9ttscw0sqXohKlChBN27c4OuQlLoKiOka6I031uLFi/OPB9NoABfAgJ8+hbX9L+mZbnISj3CeBg0a0KiRI+ncuXMEU8APXhvpYvo0cuZM/iFhCixTpkzUomVLHmVMj4jg6TD8p42KEUwED4suQUHUsmVLunTpEmEq7a+//qLmzZvzKAxJ7xqMrt2erK5QmzCiwsgJBvXrr78mqh6GhdFlfHw8Zc6ShZ4+ecJgC4wyVdegKmc7Cj4VF2cZAVWoUIFfxH788Ud+8MJwmzVvnmia0ch00S68NCGhD1VtUZ1PVU51T6hue5XWMN2DBw/S1m3buIrx48bR1q1bLSNdTCcDJPLBBx9Qzx49LJrBdPWOOXs+PV1w/2PEifsE/YPpX/xev1i3jqZOnUoqXfB7hyFhTz1ekFauWEHt2ren06dPc3/ht9+zV68k8q1YvpzNFZ9v8CKIUTHux7HjxlFwr15ucwwv24Cx4IVg85YtlpfY1LUd7z6bmK5B/7dp04Z/NHjA4mGDaTX88KyTnukiT3IRj1DX2jVreHQ3eMgQyw9HM120AYaJkSweOkAKYtorMjKSmwra0fCwMPKtUCFR2zXTwNRYwYIFadHChdS9e3eKPXrUks/eNThjuq5Qmxo1asTGhJELXhDWrFlDGzZu5GZwtLGKFalBw4aUM2dO2rplC4f7PGnFU7Z3DapyKtNFCFE8xLt07fq/iGgbN3JENJiPlvRMFyOwxUuW0Ps+PlS9enVasGABM6FVbVGdT1XO6J7Qu/VVWsN0waPW1gbgvlm8eLHFdPHNHfvR8fkDs0EtW7XilyWYrt4xZ8+npwt+pzBdvEwiMM2+ffvohRdfpCKFC1Nw7978kqz3W6ny8cdszNVr1CBAS9q1bUtVq1Xjz0nbtm7lGaTxEybYle6zBQvo6JdfUo5//5tnHgYNHmzJ507HPv74Yxo5YgRt276dJk6c6N0O+ByuXkzXQHQsPkIcZ3x3wjccvD1369aNLn/7raWkM6brDPEI33DxDWnV6tX8Bo8HoGa6sUeO8IMODwctYTotbPhwpeniB4hpzxw5cvAbOgwbo0k8qLSUXKbr6v0N08Y0L14gMGUcEhJCBw4eZMPKmSsXBQcH8ykwKu3RowcdiY1VXoOqnMp0gYXEVPaCZyPVLZs389TlnLlzDU0XsxV4acDoGLMOy5YvZwNQtUV1PlU5o3tC1R96WpudXn7j9ddpyeef832EUZX19LLtMbTDmfPp6bJ8xQo23foNGtCY0aNpz9699FK6dFTe15e/r6t0wezRwQMH+CUKC+3wex86dChLtX79eoo7eZJGjxmTSDp87nkzb15e2Lh69WqqXLkynT9/npYuW0YvELnNMSzck/T8FRDTNdkH+J6Dh2ObwEA6cOBAImoQTDeliUdo5oH9+3lkhFW6+Ca1fds2i+niYYgHOEYd9hKMasTw4fzgsU4wDExXjxo9mv98JCaGR8v4rmXWdPWu3bYdyUFtQp341obFO+u++IJmRkYmWYRkPRWsugaVsYKBnOe113hkhAfx0dhYy1QpRrZ4kGuzCHt27+bvlvhGqyUz08vW+qjaojqfqpzRPYEpYEylXr50KdELinW7bLU2a7qoY9q0afSvjBkpqEuXRKZre8zZ8+npgm+wMN169esnMl1MR3cOCuKXVdVvBYul8O2+atWqNGLECNqxcyc3ceaMGfxyitG7dercuTMFNGnCo1tMKeMzDhZb4vdKL7zgNse0l0Ss4yhUqBDPQGAGT1LqKiCma6B3yxYteBUqbtKXM2Sg2rVr89QmHvZaSg3iEc41e9Ys/mFjxWv79u0JU9/aSHfC+PH8Dap3SAh/x/UtX563duCNGwkLwmZFRrKJwGTxg8MUKUYLME2U79SpE9c5YOBANl0VtUl17XqSukJtwqg2Li6OLl68yNOUoDZhsQv6QmU8qmtQlcMUu3+jRsxfxsO6d3CwxXTHjR3LZoUHOBbQAGqB2Q9MLWLEhv/wfR0vBus3bOCRLV7YrBdS2WqkaovqfKpyRvdEv379KLB16yTf9lRaG5nuHw8f0qzZs3nFL9q2f/9+nm3BSFfvmLPn09MFC+5UpmukC2a2sCAKU+hVqla1bOuqVq0aTZk8maZFRPDvprSPDxPEvvrqK+7/Eu++y/2NnQ41ata0dLE7HUOjPvroI16FjWl4PC8kpa4CYroGevvhu0779pQvb17+VrV9xw5emITtQ1pKLeIRtirAeLH68OZ//0u5cubkb5fYcoL/j5WiMAEkLCLCNyVt6wO+veGBUa5cOaYsafAFvFTg4QtzwvdiPCwxnbZ33z4ltUl17SlxC48ZM4bbg5EXEvZNYhoci2SGDBnC9CisGkU6cfw4TzVjellFnlKVw6h8yeLFhL3h3333HS8y0+qERjBVjGjw4gLK1YiRI/nc/T79lAIDAxNJ0CQggOsYNGgQrzxv265dEolUbVGdT1XO6J7o06cPf7PcuHGjpf1omErrPXv28JahJUuW8DVsWL+e9kVH86gf31jLlCnDf8c+XXxTDx87lrdIqY45ez49XTCSizl8mBfToe69e/fyPY+Xp65duxr+VlAvZoDwkvdJhw6WvsJ6gq5duvALL35PeJHC+grUDxP76uuv+aUYo2H0i5bc6RjahO1z4WPG0JYtW3iluaTUVUBM16TeHTp04NXLW6wWy5gsqpvNlniEFcm5c+e2mx/Gii0+MB2YLr41WX+/1QplzZKF0mfIwCNZs9jCzJkz87dcvLW7c8I0L0wQQUqsX3pSqs2AVGDRkLb1yvY86AesyLXdLpRS7XH2fM7cE6mttSvnS01d0Ld4QYWx4sXCdlFlSvV9ctaLz0xYJIa9x0I9S05lzdUlpmtOJ35Lvv/773T6m29MlnA8G6Yfa9WqZbcgvothalWSKCAKiAKuKIBFoXhxwKcZSamvgJhu6msuZxQFRAFRQBTwUgXEdL204+WyRQFRQBQQBVJfATHd1NdczigKiAKigCjgpQqI6ZrseHejDJlsdrJks0foSZaKk6kShLzElihs1bkZH88BM8wuIkMTtBXfWK3qSMJqVkSYwupcbWuWI+UlryggCnifAmK6JvrcHSlDJpqdbFnsEXqSrfJkqAihK4sWLcr7kxFoH0g5bKUyMl4fHx8aPGgQh78Eqg5hJB1JiPeMWL3YXoVtV5JEAVFAFDBSQEzXQCF3oQxhq1DlSpXo1OnTvB0ICfuDMdpCsAskFVEG0AZsb8H2EdBQUAZ1ISHwh0/p0rznFCQd61GbijLkLPnG6KZ09Dj66JtvvuGtO4gMFBoaykg5mK8qAcOH0J6IywsknSOmi20qoAj9/ddfHFzE2nSF4uJoD0p+UcB7FBDTNehrd6EMYYk/okQhtisoLkgIwI7ABEbkFOSdMWMGvVu8OG/qvxEfz7FogSjEKG9VVBQHb8A+YMR0bujnZ1FFjzLkLPlGT25XCETWdaJdCFyBPYiIBGUmAddWp04dh0x34oQJHHAB//3511+JTFcoLmZUlzyigHcqIKZr0O/uRBlCeDmMPBs3acJhCJctXcr4PuzfNSLKwHTfK1mSI1FhGhbmimAYiEiEsJKVKlfmjf6I5qMh8TRp7AEPnCXf6MntCoFIqxPBLIBYw3Ugipg1flHVzY6aLr7jwnT9Gzfm6Wlb0xWKi3c+TOWqRQEzCojpGqjkTpQhzWjBbgUBBWB6GDCSEVEGpotITghbZ53efustpqHQ06ccThKB4MHctE72TNdZ8o2Zm9KZPJh+nzRxIi+KQpjFa9euma7GEdOFsQPOjri18xcs4LjLf/39N4d4TK3IVKYvTDKKAqKA2ykgpmuyS9yBMoSmIiYscGlY3LR6zRr67BlezoicAtPFyl5AtW0TQh1i9NY0IIC/94Ifaj3atWe6zpJv9OR2lUAEGgz4tEGdO9N5G4SZEU1Hz3TtlUP4v7179iS5DAS9R9QwJKG4mPxRSTZRwAsVENM16HR3ogyhqd26dqWOHTtyGDfwQq9fv85XYERO0TNdLKD6v3Tp6OzZs2y6CIIPJNqNGzeUlCFnyTd6crtKIGrfrh2j5E48A9cDWaaNPPVoOhi14pt2QEAAVfD1pZA+fRi8jrjWSHrlsJodC9iQoIMGRNdeVITi4oVPUrlkUcCkAmK6BkK5E2UITQXZBqPM06dP83dLLRkRZSKmTaP4mzeZRGSdWrRoQf2fUYYAUACrd8qUKZxFRehxlnxj8r50KBtiyBYqWDBRGRgmtvIg6dF0ChcqxAvTrBOmjLF4TFXOOv+0qVPZdIFD1JJQXBzqPsksCniVAmK6JrvbXShDRs11iSjz4AHdv3/f6BSJjjtLeHHoJB6WWSguHtZh0lxRIBUVENM1KbZQhkwKJdlIKC5yE4gCooCeAmK6cm+IAqKAKCAKiAKppICYbioJLacRBUQBUUAUEAXEdOUeEAVEAVFAFBAFUkkBMV2TQqcFypAeLQh7ZMuUKUO/37tHh2NiEu3RLVy4MJUuVYqwshn7X7G1SJIoIAqIAqKAcwqI6ZrQLa1QhuzRgmDEs2fNYjwd4h9j329gmza8DQYLgoYOGcLHsAcV5vxxlSp07949E6pJFlFAFBAFRAFbBcR0De4Jd6EMuXrr6tGCAAfImTMntWrdmooULkwrVqyg/gMG0J49e2j9unV09tw5CgsL49MjWtWVK1csyDyh6bjaK1JeFBAFvE0BMV2DHncXypCrFB49WhDCRwJRNzMykpXYs3s3bd26labPmMFBOIAR/LRfP0uUJmu5hKbjbY8LuV5RQBRwVQExXQMF3YUylBwUHtsYyghleOL4cZo6bRotX76cldiwfj2HUhwzZgw1atSIhoWGcshDYPIQ+WnDxo0WxYSm4+rPT8qLAqKAtykgpmvQ4+5EGXL15rQHLvjq2DGaNXs2ff7551w9ppRPwnTDw/nfMPuKFSpQzZo1GSsYEhJCBw4edLUpUl4UEAVEAa9UQEzXZLc/b8qQqxQeXKY9092xfTsdOnSIxo0fz4CDgwcO0PIVK2ju3LmJlAE6Lzo6mtZ98YVlKlpoOiZvHskmCogCosAzBcR0DW4Fd6EMuULhgZlmzJiRGvv7U6tWrSigaVNeDAXYe2hoKFWtUoW6de9OZT74gMk6bdq2pTNnzvCoNi4uji5evMjbhkaNGkWTp0zhaWYkoenIc0QUEAVEAccUENM10MvdKEOOde//cqtoQZg+nhUZyYi7f/75h6JWraLJkydzOXzXRVmMcpGOHDnCi6oePXrE/xaajjO9IWVEAVHAmxUQ0zXZ+6lBGTLZlBTJhr3Ijx8/pocPHyaq/5VXXqGsWbPSg4QEup+QkOiY0HRSpCukUlFAFEjDCojpmuzc1KAMmWyK22QTmo7bdIU0RBQQBTxEATFdD+koaaYoIAr8v/bOPDiqKo3iHzNIGIWMUMomm6NFhCgjUUuGaBxcIEgCAiGEQhOGJWENm+zIFvZFATcSNg0OmCiyJJCAIEggYAkGHBQRKHFAgkIhhWI5fwhT5yu6K0u/+9p0t+Q151bxB7x377v3dx993t2+QwIk4HwCFF3n9yFbQAIkQAIk4BACFF2HdBSrSQIkQAIk4HwCFF0v+9CTy5CXWR1/m5U7UWVqWM2aNfUIU50775QTJ0/K/v37bavXoEEDadWqldSuXVvOnTsnu3btUqMHV6pIma68KBcJR66YSIAESMBFgKLrxbtg5TLkRdaguMWTO1FlahiOPa1csULF88yZM9KwYUNpExlpW8X58+fLQxERcvHHH+Vvd98tXx07JomJiXqGuaJlRkREyPhx4/QI1unTpyW2UyfbevAGEiCBm4cARdemr00uQ4jIhNCIDerXl/MXLkhhYaH89NNPWmKzZs0kJCREMJqqUaOGRn2CRZ7dNavq4KzsE1FRcujwYTUhQGrRooXGRf7iiy/073hW60cflWsiUlBQIBcuXHAXFx4erkeC/hoaqm5ByIOyXPWJaNVKrl27Jv85ckS+/PJLdz4rdyLccO+990rLli3lf7/+Kh/v3i0/Xz9ShH8PqVZN8LHSqHFj5fLtt98G7H/VqJEjpX10tPTq1UsZIxBI2aNPnh6Oo1CXL1/WdkdHR8uc2bOl1/PPK5uKlpmSkiJNmzSRKn/6k4S3aFFOdOnMFLDXgAWTgCMIUHRtusnkMpSSnCw9e/ZUM4CmTZvq1GSPHj3kyi+/aPSmTrGxOvJCRChElOoWF6detKZrVtVBGdu2bZOsrCzJyMjQ2zbn5sqOjz6Sl19+WTAFDJu+s2fP6rMg9Ak9e8oPP/yg9y5ZskTuDw/XD4GzxcVyS9Wq8lyXLjoie3ftWjl58qQKFUaLnTp3dlfDyp0IR6gWvfKKnDp1SvNAcON79NDAGTBJ6Nq1qxQXF0vN0FC5dvWqdHj2WfXktUq+uCitXbNG6/Hf06e17eCEKFreJHzMoP7ox95JSdKufXt1VPKlTDx30MCB0qFDh3KiS2cmb3qF95BA8BKg6Nr0rcllyCU2EDKIF6Y4Bw0aJIX79qmwwijg2Y4dpVq1apKflydLXn1V1q5da7xmqs7YMWN0ZN21Wzd54IEHZHVmpgorBObtt95S0R87bpwKT3ZWlmS/9568dt2yD6L795YtpXt8vAox6n7x4kVJSkyUIUOGSNQTT2hYSIzey4qjp5jNyzIydISYMmCA3HXXXWoDOGXqVLUFhOhiDRxTq/Dqzc3JkT59+6qRglXyxUVpx/btghHk3sJCHcmHhYVpnOlTXoyuBw8eLP379dNqZWZmquMSki9lmkSXzkzB+2PKlpGANwQoujaUTC5D+AGdOGGC3HHHHboOCLFDmMQdO3aosNauVUuGDB2qT4DYFn32mcybP994zVQdl9BiRNm5c2f5R+vWKsBIhXv3SvXq1eXq1avuIrZs2SKTp0xxj3QRVWr8hAmlHoG1zMzVq0WuXZNDhw7J6nfekU8++aTUPZ5EFx8R69atk2XLl+u9OZs2CZ735tKlKrp31qkjqampeu1QUZFA3CCKgUhb8/N1BgFc8AEEwVy5cqWsXLXK9nGYYq5fv77aGMZ16yb4yDr61VfiS5km0bWtEG8gARIIagIUXS+715PLEIQG63/T09K0lL179uhIE9ObEF2s9fbr31+vYeSJEfCiRYuM1+yqg2dC1LG5KSs7W5ZfFz2Y0UMwV1kIDUa654qLZdbs2eUeERoaKlFRUdI9Lk7Xe5986qlSo11PoouR7Yfbt7tH0h9u26ZxmyF2EN1atWvLyJEj3aI7NDVV15mtki8uSmvWrNHdx67ngRHqhjYjPfzwwzoz8PWxY5bCj2nmA59+KthchXb4WqbV9DKdmezecF4ngeAmQNG16V+TyxBGe58VFcncOXOkX79+OkoaM3asW3Q7REfLv/r0EcQvTl+6VEeZW7duVdG1umb3ug0cMED69u2r68QxsbHy3XffaRbUARurhg0frtPHkW3ayOkzZ9yboqxEFxuo/ly1qhw5ckRFd8SIEdIxJkbXhk3uRLNnzVIh65+crMduZs2cKQMHDpR9+/dXSHR9cVHCiBqj1MSkJKlXr5688frrOsLHVDcSnJOe79VLNuXkyOTJk92I8SF14MAB5RUbE6PT7MNHjNCjQxUtE0sJWGqIi4uTxyIjtTx8EGCdGInOTHZvOK+TQHAToOja9K/JZQiCjB90iNOJEyekUaNGMnHiRNl+fXoZwocNQriOUR5+gOHkA9G1umb3ujVp0kTXTw8fPixJvXu7b8f51Llz56oAImFddtz48e7RJTY9FZ87p/eUTAkJCTL6ehswNf3vNWtk4cKFeovJnQhtxcYt1Adruxs3bpSp06ZpvgkTJujU+oujR+vfDx44oCIWqOll7JJ+FRvF7r9fn7e7oEBHvZjyR8KHBNauN2zY4K4j/h2j2RbNm+s9aPsH69fLzJkztT0VLTOsWTPd7FYyZSxbJtiQhkRnJrs3nNdJILgJUHS97F8rlyEEUMAoDZuSSiYIa/WQEP2Rx3WsObqS1bV77rlH6tat67FGWG/16hhMaKhUCwnRY0Uu0bFrottJ6MoV95Enuzyu69jAhKNIruNC3uYLxH1Yn8URqkuXLnldPPKg/cjjsiwsmbkiZZoeTmcmr7uGN5JAUBKg6HrZrb/XZcglrJhuLpusrmFTVvv27T3WKDklxetjMF42ibfdAAJ0ZroB0PlIEqhEBCi6AeoMjFqxOef48ePlnmC6FqDqsFgSIAESIIFKQICiWwk6gVUgARIgARK4OQhQdG+OfmYrSYAESIAEKgEBiq6XneDJZQg7hRNfeEFLyMvP16NCZZMnh54uzz2ngSxwHvSPTNhFjd3TJROCbNS47TbdtVzRVLVqVUmbPl2WpqcHNMZyReuHfJ7ablVevbp1pUV4eLnL2OGM40SBSHiXYjp2lLQZMwJRPMskARKoJAQoul50hJXLEAwGHnnkEUnu3182b94sb7z5ZrnSPDn0TJkyRWrWqOE+UuNFFXy+5Zmnn9Yzqo9HRZUqq2wgi4o8CB8Q+/ftk779+snBgwcrUkRA81i13eqh2MzmCrSBo1jYNf7zlSsaQxpnmMt+uPij8vj4eXHUqHL944+yWQYJkEDlIUDRtekLk8uQKyviHiN0YlnRtXLogejWuv122ZKXJ4gGBQcilzGBVXWwKQtRo/5Svboei0FQjPuaN9fQiy5nIyuXocjISA0ZGR8frxGzkFBfiAlEF3GYEdLRkyOQlZMQynjwwQf1nOuxr7+WFcuXB1R0TY5O2JhW7ZZbNHwjEmJewy0Jx4BMbce9pvbh+pbNmzXIRtm+tXJtMtUT5WFWADvhEa8aAUj27NmjMbPLii4Ca/x46ZLbQary/GSwJiRAAr4QoOja0DO5DNmJrpVDD0QXU8wQTggoRopx3buXO+tbsmo4D1ywe7dGNoJI4kwpgji8v26drcvQ4kWLNIgF/rhGojAnwPNNjkAmJ6HY2FiZPm2aigJED2dd7Ua6vjgJmRydTGEnTW03tc/F3kp0rVybTPXEee23Vq0ShLyEfSIiV82eM0fy8/PdogvjiUmTJgnciBA602QS4ct/fOYlARK4MQQoujbcTS5DdqKL657iFkN0n2zbVu3usNaIcJKw63s7M9OyNi7RhQVdWlqaxl+GZ+t9YWGSOmyYrctQu3btZMrkyRL52GOlnmFyBDI5Cb2Xna1RuBDa0mVXZye6vjgJmRyd7GI9W7Xd1D5vRNeTa5Opnl26dFGDjB4JCWqliMAbGPniQwojXbhIfbRzp0Q9/rgMGjxYQ3MykQAJBBcBiq5Nf5pchnwR3bp16ugPK9I7q1fL0aNHZeasWbaii3jLM9LSNKA/PHHbREZKcnKyrcuQSXStHIFMTkJYw4V5w7tZWTryhuGCnej68l/H5OhUUdE1tc8b0fXk2mSqJ8JtRjz0kHr3lk0Q3WlTp+o/I/oYrBBLOkb5wo55SYAEKg8Biq6XfeHJZaik6ML4YPHixeVKsxrpNmncWH9YkWCYjmnfBddjHnuqkmuki09zpN0AAATZSURBVI08JUUXU6QwHbBzGYLoIgQhRLpkMgmWyUlo186dsmzZMt31jLVkTMPaia4vTkImR6fx48dL/Xr1dMSPae59hYU6NetyNbJqu6l93oiuJ9cmUz2HDhkiz7RrJ506dfIouhgFI2wopu3BNj0jw8u3k7eRAAk4hQBF16anTC5DrqwL5s/X9dKJkyapo8zly5eNDj2YXoarDUQX63yY5pz00ku6Kcoq2YmuncsQNoS9/tprKkxYh0VsZqwJm0TX5CQEJx/s6oYzT+/evdVhyU50fXESMjk6DRo0SNfIMXOAj5BhqamlRNeq7ab2VVR0TfV0OQzNmzdPNm7aJBEREXL+/HkN71lyI1XfPn0EbYItZFFRkVN+S1hPEiABLwhQdG0gmVyGXFlhqTd/3jzdkQq3HWxSMjn06DpqVJQ68WBNDztY4UBkMijArtg9BQW6DjxjxgzZvn27eyfsgAEDxM5lCObuCxcskNatW2u+7vHxGqLS5AhkchIKCwtTCz0YHpz7/nt9Pj4iMDUaiGRydMIIGhuUsEaKtdKmTZuWcjWyarupfa425ObkSE5urqSnp5dqlpVrk6meKAA+u5g1wQcIjCLwEYSd5PgIGzVqlPyzbVsNH5qRni4NGzYM2BGlQPQRyyQBErAnQNG1Z6R3WLkMeZnd42233nprKQeiG+UyZNcGKychiAOuYSPQH7H+aOXohPrDxxbHry5cuGDXnHLX/e2UZKonHg7BxTo4nKc8ORv97gYwAwmQgGMIUHS97Krf6zLkZbGlbqPLUEWoMQ8JkAAJOIcARdc5fcWakgAJkAAJOJyAo0TX4axZfRIgARIggZucgONEF5uVsMHkm2++sQ2deJP3LZtPAiRAAiRQyQg4TnQ7REfrcQqcDU1ISJDjJ05UMqSsDgmQAAmQAAl4JuA40UUzECXq4127NJjEhg0b2LckQAIkQAIk4AgCjhRdkN2any8rVq6U7OxsR4BmJUmABEiABEjAsaK7OTdXTeMXL1nCXiQBEiABEiABRxBwrOiOGT1aYmJiNJxeXl6eWqUxkQAJkAAJkEBlJuBY0R08eLAkJSZqvOIP1q+Xzz//vDJzZt1IgARIgARIQBwruphe3l1QIHPnzmU3kgAJkAAJkIAjCDhWdLmRyhHvFytJAiRAAiRQgoDjRLdKlSrq5rPu/fdlxsyZkpOTww4lARIgARIgAUcQcJzoJiUlyfBhwzQiVUpKipyvgKuMI3qGlSQBEiABEgg6Ao4TXQTGQPrtt9+CrjPYIBIgARIggeAm4DjRDe7uYOtIgARIgASCmYBPohvMYNg2EiABEiABEvA3AZ9Fl64//u4SlkcCJEACJBCsBHwWXbr+BOurwXaRAAmQAAn4m4DPoosK0fXH393C8kiABEiABIKRgF9EF2AYrCIYXw+2iQRIgARIwJ8E/Ca6dP3xZ7ewLBIgARIggWAk4DfRpetPML4ebBMJkAAJkIA/CfhNdOn6489uYVkkQAIkQALBSMBvokvXn2B8PdgmEiABEiABfxLwm+hyI5U/u4VlkQAJkAAJBCMBn0WXrj/B+FqwTSRAAiRAAoEg4LPo0vUnEN3CMkmABEiABIKRgM+iS9efYHwt2CYSIAESIIFAEPBZdANRKZZJAiRAAiRAAsFI4P+ivW3oHdYcXAAAAABJRU5ErkJggg==;" vertex="1" parent="1">
          <mxGeometry x="362" y="350" width="201.79" height="220" as="geometry" />
        </mxCell>
        <mxCell id="jRU4DG-PdXcAIgFG9BmV-20" value="dispatch" style="html=1;verticalAlign=bottom;endArrow=block;entryX=0;entryY=0;" edge="1" target="jRU4DG-PdXcAIgFG9BmV-19" parent="1" source="jRU4DG-PdXcAIgFG9BmV-4">
          <mxGeometry relative="1" as="geometry">
            <mxPoint x="120" y="350" as="sourcePoint" />
          </mxGeometry>
        </mxCell>
        <mxCell id="jRU4DG-PdXcAIgFG9BmV-42" value="适时启动上传" style="html=1;verticalAlign=bottom;endArrow=block;" edge="1" parent="1" source="jRU4DG-PdXcAIgFG9BmV-5" target="jRU4DG-PdXcAIgFG9BmV-6">
          <mxGeometry width="80" relative="1" as="geometry">
            <mxPoint x="350" y="660" as="sourcePoint" />
            <mxPoint x="430" y="660" as="targetPoint" />
            <Array as="points">
              <mxPoint x="370" y="690" />
            </Array>
          </mxGeometry>
        </mxCell>
        <mxCell id="jRU4DG-PdXcAIgFG9BmV-44" value="" style="html=1;verticalAlign=bottom;endArrow=block;" edge="1" parent="1" target="jRU4DG-PdXcAIgFG9BmV-5">
          <mxGeometry relative="1" as="geometry">
            <mxPoint x="208" y="190" as="sourcePoint" />
            <mxPoint x="337.5" y="190" as="targetPoint" />
          </mxGeometry>
        </mxCell>
      </root>
    </mxGraphModel>
  </diagram>
</mxfile>
